<svg width="50" height="44" viewBox="0 0 50 44" fill="none" xmlns="http://www.w3.org/2000/svg">
<path d="M45.83 11.1103H41.6636V4.16636C41.6636 3.06137 41.2247 2.00164 40.4433 1.2203C39.662 0.438955 38.6022 0 37.4973 0H4.16636C3.06137 0 2.00164 0.438955 1.2203 1.2203C0.438955 2.00164 0 3.06137 0 4.16636V31.5671C3.57534e-05 32.3967 0.24769 33.2073 0.711245 33.8952C1.1748 34.5831 1.83315 35.117 2.60198 35.4285C3.37081 35.7399 4.21511 35.8148 5.02675 35.6435C5.8384 35.4722 6.58043 35.0625 7.15781 34.4669L10.952 30.5533H11.1103V34.7197C11.1103 35.8247 11.5493 36.8844 12.3306 37.6658C13.1119 38.4471 14.1717 38.8861 15.2767 38.8861H38.4944C38.8436 38.8865 39.1797 39.0183 39.436 39.2555L43.0024 42.5469C43.7655 43.2589 44.7697 43.6558 45.8133 43.6579C46.395 43.6568 46.9701 43.5348 47.5021 43.2996C48.2491 42.9815 48.8851 42.4492 49.33 41.77C49.7749 41.0908 50.0087 40.2951 50.0019 39.4832V15.2767C50.0019 14.7291 49.894 14.1868 49.6842 13.681C49.4745 13.1751 49.1671 12.7156 48.7796 12.3286C48.3922 11.9417 47.9322 11.6349 47.4261 11.4258C46.92 11.2168 46.3776 11.1096 45.83 11.1103ZM10.3631 27.7758C10.1771 27.7758 9.99301 27.8131 9.82172 27.8857C9.65042 27.9582 9.49545 28.0644 9.36598 28.1979L5.16351 32.531C4.97122 32.7293 4.72413 32.8658 4.45384 32.923C4.18355 32.9802 3.90235 32.9555 3.64619 32.852C3.39002 32.7485 3.17055 32.571 3.01582 32.3421C2.86109 32.1132 2.77814 31.8434 2.77758 31.5671V4.16636C2.77758 3.79803 2.92389 3.44479 3.18434 3.18434C3.44479 2.92389 3.79803 2.77758 4.16636 2.77758H37.4973C37.8656 2.77758 38.2188 2.92389 38.4793 3.18434C38.7397 3.44479 38.8861 3.79803 38.8861 4.16636V11.1103H15.2767C14.1717 11.1103 13.1119 11.5493 12.3306 12.3306C11.5493 13.1119 11.1103 14.1717 11.1103 15.2767V27.7758H10.3631ZM47.2188 39.486C47.2185 39.7558 47.1396 40.0196 46.9918 40.2453C46.8441 40.471 46.6337 40.6488 46.3866 40.7569C46.1394 40.865 45.8661 40.8988 45.6 40.8542C45.334 40.8095 45.0867 40.6883 44.8884 40.5054L41.3192 37.2195C40.552 36.5052 39.5426 36.1082 38.4944 36.1085H15.2767C14.9083 36.1085 14.5551 35.9622 14.2946 35.7017C14.0342 35.4413 13.8879 35.088 13.8879 34.7197V15.2767C13.8879 14.9083 14.0342 14.5551 14.2946 14.2946C14.5551 14.0342 14.9083 13.8879 15.2767 13.8879H45.83C46.1983 13.8879 46.5516 14.0342 46.812 14.2946C47.0725 14.5551 47.2188 14.9083 47.2188 15.2767V39.486Z" fill="#3D928D"/>
<path d="M40.2747 19.443H20.8317C20.4633 19.443 20.1101 19.5893 19.8496 19.8498C19.5892 20.1102 19.4429 20.4635 19.4429 20.8318C19.4429 21.2001 19.5892 21.5534 19.8496 21.8138C20.1101 22.0743 20.4633 22.2206 20.8317 22.2206H40.2747C40.643 22.2206 40.9963 22.0743 41.2567 21.8138C41.5172 21.5534 41.6635 21.2001 41.6635 20.8318C41.6635 20.4635 41.5172 20.1102 41.2567 19.8498C40.9963 19.5893 40.643 19.443 40.2747 19.443Z" fill="#3D928D"/>
<path d="M40.2747 27.7758H20.8317C20.4633 27.7758 20.1101 27.9221 19.8496 28.1825C19.5892 28.443 19.4429 28.7962 19.4429 29.1645C19.4429 29.5329 19.5892 29.8861 19.8496 30.1466C20.1101 30.407 20.4633 30.5533 20.8317 30.5533H40.2747C40.643 30.5533 40.9963 30.407 41.2567 30.1466C41.5172 29.8861 41.6635 29.5329 41.6635 29.1645C41.6635 28.7962 41.5172 28.443 41.2567 28.1825C40.9963 27.9221 40.643 27.7758 40.2747 27.7758Z" fill="#3D928D"/>
</svg>
