<svg width="32" height="26" viewBox="0 0 32 26" fill="none" xmlns="http://www.w3.org/2000/svg">
<path d="M26.5625 0.147217H4.6875C3.4443 0.147217 2.25201 0.642939 1.37294 1.52533C0.49386 2.40772 0 3.6045 0 4.85238V20.5363C0 21.7842 0.49386 22.9809 1.37294 23.8633C2.25201 24.7457 3.4443 25.2414 4.6875 25.2414H26.5625C27.8057 25.2414 28.998 24.7457 29.8771 23.8633C30.7561 22.9809 31.25 21.7842 31.25 20.5363V4.85238C31.25 3.6045 30.7561 2.40772 29.8771 1.52533C28.998 0.642939 27.8057 0.147217 26.5625 0.147217ZM25.5156 3.284L15.625 10.7338L5.73438 3.284H25.5156ZM26.5625 22.1047H4.6875C4.2731 22.1047 3.87567 21.9394 3.58265 21.6453C3.28962 21.3512 3.125 20.9522 3.125 20.5363V5.24448L14.6875 13.949C14.958 14.1527 15.2869 14.2627 15.625 14.2627C15.9631 14.2627 16.292 14.1527 16.5625 13.949L28.125 5.24448V20.5363C28.125 20.9522 27.9604 21.3512 27.6674 21.6453C27.3743 21.9394 26.9769 22.1047 26.5625 22.1047Z" fill="#4AC7BA"/>
</svg>
