<svg width="30" height="31" viewBox="0 0 30 31" fill="none" xmlns="http://www.w3.org/2000/svg">
<path d="M6.03333 13.168C8.43333 17.9025 12.3 21.767 17.0167 24.1927L20.6833 20.5123C21.1333 20.0606 21.8 19.91 22.3833 20.1107C24.25 20.7297 26.2667 21.0643 28.3333 21.0643C29.25 21.0643 30 21.8172 30 22.7373V28.5759C30 29.496 29.25 30.2488 28.3333 30.2488C12.6833 30.2488 0 17.5177 0 1.80869C0 0.888569 0.75 0.135742 1.66667 0.135742H7.5C8.41667 0.135742 9.16667 0.888569 9.16667 1.80869C9.16667 3.89988 9.5 5.90741 10.1167 7.78112C10.3 8.36665 10.1667 9.0191 9.7 9.48752L6.03333 13.168Z" fill="#4AC7BA"/>
</svg>
