<svg width="163" height="90" viewBox="0 0 163 90" fill="none" xmlns="http://www.w3.org/2000/svg">
<path fill-rule="evenodd" clip-rule="evenodd" d="M120.346 25.408H126.443V34.4963H138.794V25.408H144.892V48.1089H138.794V38.0942H126.443V48.1089H120.346V25.408ZM6 25.408H12.0996V34.4963H24.4484V25.408H30.5857V48.1089H24.4484V38.0942H12.0996V48.1089H6V25.408ZM35.6303 25.408H41.8061V48.1089H35.6303V25.408ZM149.825 25.408H156V48.1089H149.825V25.408ZM44.0646 25.408H68.0485V29.1912H59.0876V48.1089H53.0256V29.1912H44.0646V25.408ZM73.3188 39.4291L77.5736 29.3024L81.7908 39.4291H73.3188ZM83.3338 43.027L85.4428 48.1089H92.3342L81.4523 25.4451H73.7335L62.7773 48.1089H69.6291L71.7758 43.027H83.3338ZM110.895 33.1235H117.146C117.068 29.0059 113.455 25.0745 105.058 25.0004C98.809 24.9633 91.2407 27.4858 91.2021 36.7214C91.1645 45.8829 98.8833 48.7388 105.058 48.5906C110.743 48.4054 117.068 46.8482 117.334 39.9488L111.045 39.9858C110.857 44.2896 107.356 45.1418 105.059 45.1789C102.687 45.1789 97.8292 44.6972 97.7559 36.8335C97.6806 29.4153 102.123 28.3769 105.059 28.3769C107.958 28.413 110.857 29.7488 110.895 33.1235Z" fill="#CF4044"/>
<path d="M57.6437 63.9756C58.3403 64.357 59.1198 64.5477 59.9822 64.5477C60.629 64.5477 61.226 64.4399 61.7733 64.2243C62.3289 64.0004 62.7974 63.6812 63.1789 63.2666L62.5942 62.682C61.9226 63.3785 61.0643 63.7268 60.0195 63.7268C59.3312 63.7268 58.7052 63.5692 58.1413 63.2541C57.5774 62.939 57.1337 62.5078 56.8103 61.9605C56.4952 61.4132 56.3377 60.7996 56.3377 60.1196C56.3377 59.4397 56.4952 58.826 56.8103 58.2787C57.1337 57.7314 57.5774 57.3002 58.1413 56.9851C58.7052 56.67 59.3312 56.5125 60.0195 56.5125C61.056 56.5125 61.9143 56.8566 62.5942 57.5449L63.1789 56.9603C62.7974 56.5456 62.333 56.2305 61.7858 56.0149C61.2385 55.7993 60.6414 55.6915 59.9946 55.6915C59.1322 55.6915 58.3527 55.8823 57.6562 56.2637C56.9596 56.6451 56.4123 57.1759 56.0143 57.8558C55.6245 58.5275 55.4297 59.2821 55.4297 60.1196C55.4297 60.9572 55.6245 61.7159 56.0143 62.3959C56.4123 63.0676 56.9555 63.5941 57.6437 63.9756Z" fill="#0D0D0D"/>
<path d="M86.8189 64.5477C86.1721 64.5477 85.5502 64.4441 84.9531 64.2368C84.3644 64.0295 83.9083 63.7558 83.5849 63.4158L83.9456 62.7068C84.2607 63.022 84.6795 63.279 85.2019 63.478C85.7243 63.6688 86.2633 63.7641 86.8189 63.7641C87.5984 63.7641 88.183 63.6231 88.5727 63.3412C88.9625 63.051 89.1573 62.6778 89.1573 62.2217C89.1573 61.8735 89.0495 61.5957 88.8339 61.3884C88.6266 61.1811 88.3696 61.0235 88.0627 60.9157C87.7559 60.7996 87.3289 60.6752 86.7816 60.5425C86.1265 60.3767 85.6041 60.2191 85.2143 60.0699C84.8246 59.9123 84.4887 59.676 84.2068 59.3609C83.9332 59.0458 83.7963 58.6187 83.7963 58.0797C83.7963 57.6402 83.9124 57.2422 84.1446 56.8856C84.3768 56.5208 84.7334 56.2305 85.2143 56.0149C85.6953 55.7993 86.2923 55.6915 87.0055 55.6915C87.503 55.6915 87.9881 55.762 88.4608 55.903C88.9417 56.0357 89.3563 56.2222 89.7046 56.4627L89.3937 57.1966C89.0288 56.9561 88.6391 56.7778 88.2244 56.6617C87.8098 56.5373 87.4035 56.4752 87.0055 56.4752C86.2426 56.4752 85.6663 56.6244 85.2765 56.9229C84.8951 57.2132 84.7043 57.5905 84.7043 58.0548C84.7043 58.4031 84.808 58.6851 85.0153 58.9007C85.2309 59.108 85.4963 59.2697 85.8114 59.3858C86.1348 59.4936 86.566 59.6138 87.105 59.7465C87.7435 59.904 88.2576 60.0616 88.6473 60.2191C89.0454 60.3684 89.3812 60.6006 89.6549 60.9157C89.9285 61.2225 90.0653 61.6413 90.0653 62.172C90.0653 62.6115 89.9451 63.0137 89.7046 63.3785C89.4724 63.7351 89.1117 64.0212 88.6225 64.2368C88.1332 64.4441 87.532 64.5477 86.8189 64.5477Z" fill="#0D0D0D"/>
<path d="M102.003 64.5477C101.356 64.5477 100.734 64.4441 100.137 64.2368C99.5482 64.0295 99.0921 63.7558 98.7687 63.4158L99.1294 62.7068C99.4445 63.022 99.8633 63.279 100.386 63.478C100.908 63.6688 101.447 63.7641 102.003 63.7641C102.782 63.7641 103.367 63.6231 103.757 63.3412C104.146 63.051 104.341 62.6778 104.341 62.2217C104.341 61.8735 104.233 61.5957 104.018 61.3884C103.81 61.1811 103.553 61.0235 103.247 60.9157C102.94 60.7996 102.513 60.6752 101.965 60.5425C101.31 60.3767 100.788 60.2191 100.398 60.0699C100.008 59.9123 99.6726 59.676 99.3906 59.3609C99.117 59.0458 98.9801 58.6187 98.9801 58.0797C98.9801 57.6402 99.0962 57.2422 99.3284 56.8856C99.5606 56.5208 99.9172 56.2305 100.398 56.0149C100.879 55.7993 101.476 55.6915 102.189 55.6915C102.687 55.6915 103.172 55.762 103.645 55.903C104.126 56.0357 104.54 56.2222 104.888 56.4627L104.577 57.1966C104.213 56.9561 103.823 56.7778 103.408 56.6617C102.994 56.5373 102.587 56.4752 102.189 56.4752C101.426 56.4752 100.85 56.6244 100.46 56.9229C100.079 57.2132 99.8882 57.5905 99.8882 58.0548C99.8882 58.4031 99.9918 58.6851 100.199 58.9007C100.415 59.108 100.68 59.2697 100.995 59.3858C101.319 59.4936 101.75 59.6138 102.289 59.7465C102.927 59.904 103.441 60.0616 103.831 60.2191C104.229 60.3684 104.565 60.6006 104.839 60.9157C105.112 61.2225 105.249 61.6413 105.249 62.172C105.249 62.6115 105.129 63.0137 104.888 63.3785C104.656 63.7351 104.296 64.0212 103.806 64.2368C103.317 64.4441 102.716 64.5477 102.003 64.5477Z" fill="#0D0D0D"/>
<path d="M135.011 64.2368C135.608 64.4441 136.23 64.5477 136.877 64.5477C137.59 64.5477 138.191 64.4441 138.68 64.2368C139.169 64.0212 139.53 63.7351 139.762 63.3785C140.003 63.0137 140.123 62.6115 140.123 62.172C140.123 61.6413 139.986 61.2225 139.713 60.9157C139.439 60.6006 139.103 60.3684 138.705 60.2191C138.315 60.0616 137.801 59.904 137.163 59.7465C136.624 59.6138 136.193 59.4936 135.869 59.3858C135.554 59.2697 135.289 59.108 135.073 58.9007C134.866 58.6851 134.762 58.4031 134.762 58.0548C134.762 57.5905 134.953 57.2132 135.334 56.9229C135.724 56.6244 136.3 56.4752 137.063 56.4752C137.461 56.4752 137.868 56.5373 138.282 56.6617C138.697 56.7778 139.087 56.9561 139.451 57.1966L139.762 56.4627C139.414 56.2222 138.999 56.0357 138.519 55.903C138.046 55.762 137.561 55.6915 137.063 55.6915C136.35 55.6915 135.753 55.7993 135.272 56.0149C134.791 56.2305 134.435 56.5208 134.202 56.8856C133.97 57.2422 133.854 57.6402 133.854 58.0797C133.854 58.6187 133.991 59.0458 134.265 59.3609C134.546 59.676 134.882 59.9123 135.272 60.0699C135.662 60.2191 136.184 60.3767 136.839 60.5425C137.387 60.6752 137.814 60.7996 138.12 60.9157C138.427 61.0235 138.684 61.1811 138.892 61.3884C139.107 61.5957 139.215 61.8735 139.215 62.2217C139.215 62.6778 139.02 63.051 138.63 63.3412C138.241 63.6231 137.656 63.7641 136.877 63.7641C136.321 63.7641 135.782 63.6688 135.26 63.478C134.737 63.279 134.318 63.022 134.003 62.7068L133.643 63.4158C133.966 63.7558 134.422 64.0295 135.011 64.2368Z" fill="#0D0D0D"/>
<path d="M131.639 64.4731V55.7661H130.88L127.136 62.2217L123.355 55.7661H122.596V64.4731H123.479V57.5448L126.9 63.3661H127.335L130.756 57.5075V64.4731H131.639Z" fill="#0D0D0D"/>
<path d="M120.433 63.677V64.4731H114.276V55.7661H120.246V56.5622H115.196V59.6594H119.699V60.443H115.196V63.677H120.433Z" fill="#0D0D0D"/>
<path d="M105.765 56.5622H108.825V64.4731H109.745V56.5622H112.805V55.7661H105.765V56.5622Z" fill="#0D0D0D"/>
<path d="M94.874 64.4731V61.463L98.3567 55.7661H97.4363L94.4511 60.6545L91.4658 55.7661H90.4832L93.966 61.463V64.4731H94.874Z" fill="#0D0D0D"/>
<path d="M74.7588 55.7661H73.8383V64.4731H79.6347V63.677H74.7588V55.7661Z" fill="#0D0D0D"/>
<path fill-rule="evenodd" clip-rule="evenodd" d="M70.383 62.1471H65.532L64.4871 64.4731H63.5294L67.5097 55.7661H68.4177L72.398 64.4731H71.4278L70.383 62.1471ZM70.0471 61.4008L67.9575 56.7239L65.8678 61.4008H70.0471Z" fill="#0D0D0D"/>
<path d="M52.4475 55.7661H53.368V64.4731H52.4475V55.7661Z" fill="#0D0D0D"/>
<path fill-rule="evenodd" clip-rule="evenodd" d="M45.7162 55.7661H42.1712V64.4731H45.7162C46.6366 64.4731 47.4493 64.2907 48.1541 63.9258C48.859 63.5526 49.4063 63.0385 49.796 62.3834C50.1857 61.72 50.3806 60.9654 50.3806 60.1196C50.3806 59.2738 50.1857 58.5233 49.796 57.8682C49.4063 57.2049 48.859 56.6907 48.1541 56.3259C47.4493 55.9527 46.6366 55.7661 45.7162 55.7661ZM47.669 63.2292C47.0968 63.5278 46.4293 63.677 45.6664 63.677H43.0916V56.5622H45.6664C46.4293 56.5622 47.0968 56.7156 47.669 57.0224C48.2412 57.3209 48.6848 57.7397 48.9999 58.2787C49.315 58.8094 49.4726 59.4231 49.4726 60.1196C49.4726 60.8162 49.315 61.4339 48.9999 61.9729C48.6848 62.5037 48.2412 62.9224 47.669 63.2292Z" fill="#0D0D0D"/>
<path d="M40.0075 63.677V64.4731H33.8504V55.7661H39.8209V56.5622H34.7709V59.6594H39.2736V60.443H34.7709V63.677H40.0075Z" fill="#0D0D0D"/>
<path d="M31.0135 64.4731V55.7661H30.2547L26.5108 62.2217L22.7295 55.7661H21.9707V64.4731H22.8538V57.5448L26.2744 63.3661H26.7098L30.1304 57.5075V64.4731H31.0135Z" fill="#0D0D0D"/>
</svg>
