<svg width="56" height="56" viewBox="0 0 56 56" fill="none" xmlns="http://www.w3.org/2000/svg">
<path d="M48.2381 12.8001C40.8543 8.60799 34.2326 6.55957 27.8968 6.55957C21.3228 6.55957 14.5582 8.60799 7.26968 12.8954C7.22204 12.943 7.12677 12.9907 7.07913 13.0383C7.03149 13.0859 6.98385 13.1336 6.93622 13.1336C6.74567 13.3241 6.65039 13.6099 6.65039 13.8958V14.2292C6.65039 14.2769 6.65039 14.2769 6.65039 14.2769C6.7933 28.5682 14.463 41.4304 27.1822 48.8142C27.3728 48.9095 27.5633 48.9571 27.8015 48.9571C28.0397 48.9571 28.2303 48.9095 28.4208 48.8142C41.283 41.3827 49.0003 28.33 49.0003 13.9434C48.9527 13.4194 48.6668 12.9907 48.2381 12.8001ZM27.8015 46.3847C16.035 39.3343 9.27046 27.806 9.03228 14.6103C15.7492 10.7993 21.9421 8.94146 27.8968 8.94146C33.661 8.94146 39.8062 10.7993 46.5708 14.6103C46.3326 27.806 39.568 39.3343 27.8015 46.3847ZM17.3689 24.9477C17.3689 30.7119 22.0374 35.3804 27.8015 35.3804C33.5657 35.3804 38.2342 30.7119 38.2342 24.9477C38.2342 19.1836 33.5657 14.5151 27.8015 14.5151C22.0374 14.5151 17.3689 19.2312 17.3689 24.9477ZM35.8523 24.9477C35.8523 29.378 32.2318 32.9985 27.8015 32.9985C23.3712 32.9985 19.7508 29.378 19.7508 24.9477C19.7508 20.5174 23.3712 16.9446 27.8015 16.9446C32.2318 16.9446 35.8523 20.5651 35.8523 24.9477ZM26.2771 26.091L31.5649 20.8032C32.0413 20.3269 32.8035 20.3269 33.2322 20.8032C33.7086 21.2796 33.7086 22.0418 33.2322 22.4706L27.087 28.6158C26.8488 28.854 26.563 28.9493 26.2295 28.9493C25.896 28.9493 25.6102 28.854 25.372 28.6158L22.2756 25.5194C21.7992 25.043 21.7992 24.2808 22.2756 23.8521C22.7519 23.3757 23.5141 23.3757 23.9429 23.8521L26.2771 26.091Z" fill="#3D928D"/>
</svg>
