<svg width="56" height="56" viewBox="0 0 56 56" fill="none" xmlns="http://www.w3.org/2000/svg">
<path d="M44.6854 36.0862V12.5517C44.6854 11.9045 44.1558 11.375 43.5086 11.375H4.67672C4.02953 11.375 3.5 11.9045 3.5 12.5517V36.0862C3.5 36.7334 4.02953 37.2629 4.67672 37.2629H43.5086C44.1558 37.2629 44.6854 36.7334 44.6854 36.0862ZM42.3319 34.9095H5.85345V13.7284H42.3319V34.9095Z" fill="#3D928D"/>
<path d="M24.0926 31.9676C28.3288 31.9676 31.7413 28.5551 31.7413 24.3189C31.7413 20.0827 28.3288 16.6702 24.0926 16.6702C19.8563 16.6702 16.4438 20.0827 16.4438 24.3189C16.4438 28.5551 19.8563 31.9676 24.0926 31.9676ZM24.0926 19.0236C27.0344 19.0236 29.3878 21.3771 29.3878 24.3189C29.3878 27.2607 27.0344 29.6141 24.0926 29.6141C21.1507 29.6141 18.7973 27.2607 18.7973 24.3189C18.7973 21.3771 21.1507 19.0236 24.0926 19.0236Z" fill="#3D928D"/>
<path d="M8.79541 40.2047C8.79541 40.8519 9.32494 41.3814 9.97213 41.3814H47.6273C48.2745 41.3814 48.8041 40.8519 48.8041 40.2047V17.8469C48.8041 17.1997 48.2745 16.6702 47.6273 16.6702C46.9801 16.6702 46.4506 17.1997 46.4506 17.8469V39.0279H9.97213C9.32494 39.0279 8.79541 39.5575 8.79541 40.2047Z" fill="#3D928D"/>
<path d="M51.746 20.7888C51.0988 20.7888 50.5693 21.3183 50.5693 21.9655V43.1466H14.0908C13.4436 43.1466 12.9141 43.6761 12.9141 44.3233C12.9141 44.9705 13.4436 45.5 14.0908 45.5H51.746C52.3932 45.5 52.9227 44.9705 52.9227 44.3233V21.9655C52.9227 21.3183 52.3932 20.7888 51.746 20.7888Z" fill="#3D928D"/>
<path d="M36.4486 32.5564C38.3902 32.5564 39.9788 30.9679 39.9788 29.0263C39.9788 27.0847 38.3902 25.4961 36.4486 25.4961C34.507 25.4961 32.9185 27.0847 32.9185 29.0263C32.9185 30.9679 34.507 32.5564 36.4486 32.5564ZM36.4486 27.8495C37.0958 27.8495 37.6254 28.3791 37.6254 29.0263C37.6254 29.6735 37.0958 30.203 36.4486 30.203C35.8014 30.203 35.2719 29.6735 35.2719 29.0263C35.2719 28.3791 35.8014 27.8495 36.4486 27.8495Z" fill="#3D928D"/>
<path d="M11.7367 23.1421C13.6783 23.1421 15.2669 21.5536 15.2669 19.612C15.2669 17.6704 13.6783 16.0818 11.7367 16.0818C9.79512 16.0818 8.20654 17.6704 8.20654 19.612C8.20654 21.5536 9.79512 23.1421 11.7367 23.1421ZM11.7367 18.4352C12.3839 18.4352 12.9134 18.9648 12.9134 19.612C12.9134 20.2592 12.3839 20.7887 11.7367 20.7887C11.0895 20.7887 10.56 20.2592 10.56 19.612C10.56 18.9648 11.0895 18.4352 11.7367 18.4352Z" fill="#3D928D"/>
</svg>
