<svg width="56" height="56" viewBox="0 0 56 56" fill="none" xmlns="http://www.w3.org/2000/svg">
<path d="M33.4814 8.43334L33.4815 8.43333L36.5033 7.62531L36.5036 7.62523C36.8993 7.52075 37.317 7.63241 37.6045 7.92045L39.8176 10.1341C40.106 10.422 40.2185 10.8418 40.1127 11.2349L39.3043 14.2564C39.3043 14.2565 39.3043 14.2565 39.3042 14.2565C39.1995 14.6509 38.891 14.9581 38.4981 15.0633L38.4981 15.0633L35.4762 15.8713L35.4762 15.8713C35.3784 15.8974 35.2794 15.9102 35.1812 15.9102C34.883 15.9102 34.5913 15.7929 34.3751 15.5762L33.4814 8.43334ZM33.4814 8.43334C33.0885 8.53853 32.78 8.84575 32.6753 9.24008C32.6753 9.24011 32.6753 9.24014 32.6753 9.24017L31.8668 12.2622C31.8668 12.2622 31.8668 12.2622 31.8668 12.2622M33.4814 8.43334L31.8668 12.2622M31.8668 12.2622C31.761 12.6553 31.8735 13.0751 32.1618 13.3629L31.8668 12.2622ZM32.1619 13.363L34.375 15.5761L32.1619 13.363ZM35.522 13.4986L34.2394 12.2161L34.7073 10.4658L36.4576 9.99797L37.7401 11.281L37.2722 13.0308L35.522 13.4986Z" fill="#3D928D" stroke="#3D928D" stroke-width="0.2"/>
<path d="M33.4814 8.43334L33.4815 8.43333L36.5033 7.62531L36.5036 7.62523C36.8993 7.52075 37.317 7.63241 37.6045 7.92045L39.8176 10.1341C40.106 10.422 40.2185 10.8418 40.1127 11.2349L39.3043 14.2564C39.3043 14.2565 39.3043 14.2565 39.3042 14.2565C39.1995 14.6509 38.891 14.9581 38.4981 15.0633L38.4981 15.0633L35.4762 15.8713L35.4762 15.8713C35.3784 15.8974 35.2794 15.9102 35.1812 15.9102C34.883 15.9102 34.5913 15.7929 34.3751 15.5762L33.4814 8.43334ZM33.4814 8.43334C33.0885 8.53853 32.78 8.84575 32.6753 9.24008C32.6753 9.24011 32.6753 9.24014 32.6753 9.24017L31.8668 12.2622C31.8668 12.2622 31.8668 12.2622 31.8668 12.2622M33.4814 8.43334L31.8668 12.2622M31.8668 12.2622C31.761 12.6553 31.8735 13.0751 32.1618 13.3629L31.8668 12.2622ZM32.1619 13.363L34.375 15.5761L32.1619 13.363ZM35.522 13.4986L34.2394 12.2161L34.7073 10.4658L36.4576 9.99797L37.7401 11.281L37.2722 13.0308L35.522 13.4986Z" fill="#3D928D" stroke="#3D928D" stroke-width="0.2"/>
<path d="M33.4814 8.43334L33.4815 8.43333L36.5033 7.62531L36.5036 7.62523C36.8993 7.52075 37.317 7.63241 37.6045 7.92045L39.8176 10.1341C40.106 10.422 40.2185 10.8418 40.1127 11.2349L39.3043 14.2564C39.3043 14.2565 39.3043 14.2565 39.3042 14.2565C39.1995 14.6509 38.891 14.9581 38.4981 15.0633L38.4981 15.0633L35.4762 15.8713L35.4762 15.8713C35.3784 15.8974 35.2794 15.9102 35.1812 15.9102C34.883 15.9102 34.5913 15.7929 34.3751 15.5762L33.4814 8.43334ZM33.4814 8.43334C33.0885 8.53853 32.78 8.84575 32.6753 9.24008C32.6753 9.24011 32.6753 9.24014 32.6753 9.24017L31.8668 12.2622C31.8668 12.2622 31.8668 12.2622 31.8668 12.2622M33.4814 8.43334L31.8668 12.2622M31.8668 12.2622C31.761 12.6553 31.8735 13.0751 32.1618 13.3629L31.8668 12.2622ZM32.1619 13.363L34.375 15.5761L32.1619 13.363ZM35.522 13.4986L34.2394 12.2161L34.7073 10.4658L36.4576 9.99797L37.7401 11.281L37.2722 13.0308L35.522 13.4986Z" fill="#3D928D" stroke="#3D928D" stroke-width="0.2"/>
<path d="M9.29411 35.6874L4.90167 40.0794C4.62578 40.3553 4.22327 40.4718 3.84627 40.3856C3.46432 40.3004 3.15363 40.0253 3.02224 39.6574C1.92439 36.593 2.67405 33.2568 4.97864 30.9527L5.04934 31.0234L4.97865 30.9527C7.37038 28.562 10.9999 27.8746 14.0682 29.145L28.2717 14.941C26.9767 11.8343 27.6586 8.27231 30.0866 5.84523C31.6615 4.26985 33.757 3.40154 35.9866 3.4L35.9867 3.4V3.5L35.9867 3.4H35.9867H35.9868H35.9868H35.9868H35.9869H35.9869H35.9869H35.9869H35.987H35.987H35.987H35.9871H35.9871H35.9871H35.9872H35.9872H35.9872H35.9873H35.9873H35.9873H35.9874H35.9874H35.9874H35.9875H35.9875H35.9875H35.9876H35.9876H35.9876H35.9877H35.9877H35.9877H35.9878H35.9878H35.9878H35.9879H35.9879H35.9879H35.988H35.988H35.988H35.9881H35.9881H35.9881H35.9882H35.9882H35.9882H35.9883H35.9883H35.9883H35.9884H35.9884H35.9884H35.9885H35.9885H35.9886H35.9886H35.9886H35.9887H35.9887H35.9887H35.9888H35.9888H35.9888H35.9889H35.9889H35.9889H35.989H35.989H35.9891H35.9891H35.9891H35.9892H35.9892H35.9892H35.9893H35.9893H35.9893H35.9894H35.9894H35.9894H35.9895H35.9895H35.9895H35.9896H35.9896H35.9896H35.9897H35.9897H35.9897H35.9898H35.9898H35.9898H35.9899H35.9899H35.9899H35.99H35.99H35.99H35.9901H35.9901H35.9901H35.9902H35.9902H35.9902H35.9903H35.9903H35.9903H35.9903H35.9904H35.9904H35.9904H35.9905H35.9905H35.9905H35.9906H35.9906H35.9906H35.9907H35.9907H35.9907C38.2204 3.4 40.3169 4.26884 41.8928 5.8452C41.8928 5.84521 41.8928 5.84522 41.8928 5.84523M9.29411 35.6874L41.8928 5.84523M9.29411 35.6874L12.0506 38.4439L7.65916 42.8364C7.38307 43.1124 7.26723 43.511 7.35299 43.8919M9.29411 35.6874L41.8928 17.6518M41.8928 5.84523C43.4707 7.42214 44.3396 9.5202 44.3385 11.7514C44.3375 13.981 43.4687 16.0765 41.8928 17.6518M41.8928 5.84523L41.8928 17.6518M41.8928 17.6518C39.4668 20.08 35.9017 20.7613 32.798 19.4658L18.5935 33.6703C19.8649 36.7396 19.1755 40.3682 16.7858 42.7594L16.7151 42.6887L16.7858 42.7594C15.1993 44.3464 13.0517 45.199 10.8715 45.199C9.93296 45.199 8.98908 45.0412 8.0811 44.7158C7.71258 44.5838 7.4387 44.2731 7.35299 43.8919M7.35299 43.8919C7.35299 43.8919 7.35298 43.8919 7.35298 43.8919L7.45055 43.87L7.35299 43.8919ZM10.7916 42.9288L14.4689 39.25C14.9142 38.8047 14.9142 38.0832 14.4689 37.6378L10.1002 33.2691C9.65487 32.8238 8.93335 32.8238 8.48801 33.2691L4.80921 36.9474C4.77688 35.3352 5.3962 33.7601 6.59085 32.5649C8.47837 30.6769 11.4276 30.2494 13.7591 31.5216L13.7592 31.5216C14.2022 31.7631 14.7533 31.6854 15.1108 31.3268L10.7916 42.9288ZM10.7916 42.9288C12.4035 42.9574 13.9783 42.3425 15.1736 41.1472C17.0601 39.2602 17.4886 36.312 16.2169 33.9788L16.2169 33.9788C15.9753 33.5352 16.0543 32.9846 16.4118 32.6272L31.7545 17.2845C32.1121 16.9269 32.6609 16.8498 33.1036 17.0878L33.1039 17.088C35.4814 18.3751 38.3657 17.9551 40.2806 16.0397L40.3513 16.1104L40.2806 16.0397C41.4259 14.8944 42.0573 13.3713 42.0583 11.7503C42.0583 10.1283 41.4279 8.60422 40.2806 7.45745C39.1343 6.31162 37.6117 5.68023 35.9907 5.68023H35.9907H35.9907H35.9906H35.9906H35.9906H35.9905H35.9905H35.9905H35.9904H35.9904H35.9904H35.9903H35.9903H35.9903H35.9902H35.9902H35.9902H35.9901H35.9901H35.9901H35.99H35.99H35.99H35.99H35.9899H35.9899H35.9899H35.9898H35.9898H35.9898H35.9897H35.9897H35.9897H35.9896H35.9896H35.9896H35.9895H35.9895H35.9895H35.9894H35.9894H35.9894H35.9893H35.9893H35.9893H35.9893H35.9892H35.9892H35.9892H35.9891H35.9891H35.9891H35.989H35.989H35.989H35.9889H35.9889H35.9889H35.9888H35.9888H35.9888H35.9887H35.9887H35.9887H35.9886H35.9886H35.9886H35.9886H35.9885H35.9885H35.9885H35.9884H35.9884H35.9884H35.9883H35.9883H35.9883H35.9882H35.9882H35.9882H35.9881H35.9881H35.9881H35.988H35.988H35.988H35.9879H35.9879H35.9879H35.9878H35.9878H35.9878H35.9877C34.3667 5.68123 32.8441 6.31215 31.6989 7.45743C29.7839 9.37235 29.3624 12.2562 30.6506 14.6351L30.6506 14.6353C30.89 15.0789 30.8099 15.6277 30.4536 15.984L15.111 31.3266L10.7916 42.9288Z" fill="#3D928D" stroke="#3D928D" stroke-width="0.2"/>
<path d="M21.77 44.9516L21.77 44.9516C20.4512 46.271 20.4511 48.4171 21.77 49.7355C21.77 49.7355 21.77 49.7355 21.77 49.7355L24.482 52.4475C25.1204 53.0863 25.9706 53.4387 26.8737 53.4387C27.7768 53.4387 28.627 53.0863 29.2664 52.4475L29.2664 52.4475L40.4121 41.3018C40.959 40.7549 41.2611 40.0271 41.2611 39.2535C41.2611 38.4798 40.959 37.752 40.4121 37.2056C40.4121 37.2056 40.4121 37.2056 40.4121 37.2056L37.2176 34.0111C36.0125 32.806 33.9156 32.806 32.7105 34.0111L21.77 44.9516ZM27.6542 50.8348L27.6541 50.8348C27.2392 51.2502 26.5112 51.2508 26.0941 50.8352L23.3823 48.1233C23.3823 48.1233 23.3822 48.1233 23.3822 48.1233C22.953 47.6936 22.953 46.9935 23.3822 46.5638C23.3822 46.5638 23.3823 46.5638 23.3823 46.5638L34.3227 35.6233C34.494 35.4521 34.7215 35.3575 34.9641 35.3575C35.2066 35.3575 35.4341 35.4521 35.6054 35.6233L38.7999 38.8183L38.8001 38.8186C38.9172 38.9348 38.9808 39.0889 38.9808 39.2535C38.9808 39.4179 38.9172 39.5722 38.8 39.689L38.7999 39.6891L27.6542 50.8348Z" fill="#3D928D" stroke="#3D928D" stroke-width="0.2"/>
<path d="M38.7129 37.1176L38.6422 37.0469L38.7129 37.1176L52.2811 23.5489C52.7265 23.1035 52.7265 22.382 52.2811 21.9366C51.8358 21.4913 51.1143 21.4913 50.6689 21.9366L50.7396 22.0074L50.6689 21.9366L37.1007 35.5054C36.6554 35.9507 36.6554 36.6722 37.1007 37.1176C37.3233 37.3402 37.6152 37.4516 37.9068 37.4516C38.1984 37.4516 38.4903 37.3402 38.7129 37.1176Z" fill="#3D928D" stroke="#3D928D" stroke-width="0.2"/>
</svg>
