<svg width="56" height="56" viewBox="0 0 56 56" fill="none" xmlns="http://www.w3.org/2000/svg">
<path d="M16.7592 7.55786C16.4823 7.58396 16.2252 7.71271 16.0385 7.91879C15.8517 8.12487 15.7488 8.39336 15.75 8.67147V29.8299H12.4091V29.2731C12.4091 28.9778 12.2917 28.6945 12.0829 28.4857C11.8741 28.2768 11.5908 28.1595 11.2955 28.1595H4.61365C4.57886 28.1579 4.54403 28.1579 4.50924 28.1595C4.23234 28.1856 3.97523 28.3143 3.78846 28.5204C3.6017 28.7265 3.4988 28.995 3.50001 29.2731V44.8635C3.50003 45.1589 3.61737 45.4421 3.82621 45.651C4.03505 45.8598 4.3183 45.9771 4.61365 45.9772H11.2955C11.5908 45.9771 11.8741 45.8598 12.0829 45.651C12.2917 45.4421 12.4091 45.1589 12.4091 44.8635V43.2453L20.8136 47.5257C20.9698 47.6055 21.1427 47.6472 21.3182 47.6475H36.9091C37.1053 47.6453 37.2973 47.5913 37.4659 47.4909L50.9513 39.5914C52.1206 38.9071 52.5 37.6317 52.5 36.5115C52.5 34.3721 50.7417 32.6139 48.6023 32.6139C48.4162 32.6139 48.2329 32.625 48.0455 32.6484V22.5912C48.0488 22.4327 48.0183 22.2753 47.956 22.1295C47.8936 21.9838 47.8009 21.853 47.6839 21.746C47.567 21.6389 47.4285 21.5581 47.2778 21.5088C47.1271 21.4596 46.9676 21.4431 46.81 21.4605C46.5332 21.4909 46.2779 21.6239 46.0943 21.8332C45.9107 22.0426 45.8122 22.3131 45.8182 22.5915V33.5535L42.1119 35.4327C41.4872 34.107 40.1326 33.1707 38.5795 33.1707H28C27.3317 33.1707 26.5027 32.5582 25.2855 31.6917C24.0683 30.8252 22.4419 29.8299 20.2046 29.8299H17.9773V9.78507H45.8182V18.1371C45.8161 18.2846 45.8434 18.4312 45.8984 18.5681C45.9534 18.705 46.0351 18.8297 46.1387 18.9347C46.2424 19.0398 46.3658 19.1233 46.502 19.1803C46.6381 19.2372 46.7842 19.2665 46.9318 19.2665C47.0794 19.2665 47.2255 19.2372 47.3617 19.1803C47.4978 19.1233 47.6213 19.0398 47.7249 18.9347C47.8285 18.8297 47.9102 18.705 47.9652 18.5681C48.0203 18.4312 48.0475 18.2846 48.0455 18.1371V8.67147C48.0454 8.37613 47.9281 8.09289 47.7192 7.88406C47.5104 7.67522 47.2272 7.55789 46.9318 7.55786H16.8636C16.8289 7.55623 16.794 7.55623 16.7592 7.55786ZM26.2251 12.0123C25.9483 12.0384 25.6911 12.1671 25.5044 12.3732C25.3176 12.5793 25.2147 12.8478 25.2159 13.1259V17.5803C25.2159 17.8756 25.3333 18.1589 25.5421 18.3677C25.751 18.5765 26.0342 18.6939 26.3296 18.6939H37.4659C37.7613 18.6939 38.0445 18.5765 38.2533 18.3677C38.4622 18.1589 38.5795 17.8756 38.5795 17.5803V13.1259C38.5795 12.8305 38.4622 12.5473 38.2533 12.3385C38.0445 12.1296 37.7613 12.0123 37.4659 12.0123H26.3296C26.2948 12.0106 26.2599 12.0106 26.2251 12.0123ZM27.4432 14.2395H36.3523V16.4667H27.4432V14.2395ZM5.72728 30.3867H10.1818V43.75H5.72728V30.3867ZM12.4091 32.0571H20.2046C21.7937 32.0571 22.8688 32.7149 23.9979 33.5187C25.127 34.3225 26.2892 35.398 28 35.398H38.5795C39.5243 35.398 40.25 36.1236 40.25 37.0683C40.25 38.013 39.5243 38.7387 38.5795 38.7387H28.5568C28.4091 38.7364 28.2625 38.7636 28.1254 38.8185C27.9882 38.8735 27.8634 38.9551 27.7582 39.0587C27.6529 39.1624 27.5694 39.2859 27.5123 39.4221C27.4553 39.5584 27.4259 39.7046 27.4259 39.8523C27.4259 40 27.4553 40.1462 27.5123 40.2825C27.5694 40.4187 27.6529 40.5423 27.7582 40.6459C27.8634 40.7496 27.9882 40.8312 28.1254 40.8861C28.2625 40.9411 28.4091 40.9682 28.5568 40.9659H38.5795C40.4767 40.9659 42.0697 39.5862 42.4077 37.7817L47.9411 34.9629C48.1024 34.8809 48.3255 34.8411 48.6023 34.8411C49.538 34.8411 50.2727 35.5758 50.2727 36.5115C50.2727 37.0992 50.0355 37.5616 49.8377 37.6773L36.5959 45.4203H21.5792L12.4091 40.7397V32.0571Z" fill="#3D928D"/>
</svg>
