<svg width="41" height="40" viewBox="0 0 41 40" fill="none" xmlns="http://www.w3.org/2000/svg">
<path d="M7.25487 28.3621C6.84045 29.1081 6.59181 29.7711 6.59181 30.5171C6.59181 34.4955 9.82423 37.7279 13.8026 37.7279C15.3774 37.7279 16.8693 37.2306 18.1125 36.236L18.1954 36.1531C18.2783 36.0702 18.3612 35.9873 18.5269 35.9045C18.6098 35.8216 18.6927 35.8216 18.6927 35.7387C23.1684 31.7603 26.0693 23.0576 27.1467 17.2558C27.1467 17.2558 27.1467 17.2558 27.1467 17.173C27.3954 16.1784 27.5611 15.1838 27.5611 14.1063C27.5611 7.97297 22.5882 3 16.4549 3C12.5594 3 8.91252 5.07207 6.92334 8.38738C5.84586 8.96756 1.03866 12.0342 1.53596 18.4991C2.03325 24.1351 4.35397 25.7099 5.43145 26.0414C5.92874 27.036 6.50892 27.7819 7.25487 28.3621ZM10.8188 19.6594C13.1395 19.6594 14.963 21.4829 14.963 23.8036C14.963 26.1243 13.1395 27.9477 10.8188 27.9477C8.49811 27.9477 6.67469 26.1243 6.67469 23.8036C6.67469 21.4829 8.49811 19.6594 10.8188 19.6594ZM11.6477 13.7748C11.6477 13.3603 11.7305 13.0288 11.7305 12.6144C12.4765 12.4486 13.8855 12.2829 15.2945 12.5315C16.1233 12.6973 16.7864 13.2775 17.1179 14.0234C17.4494 14.8522 17.4494 15.7639 17.1179 16.5099L15.2945 20.0739C14.6314 19.3279 13.8026 18.7477 12.8909 18.4162C12.3107 17.3387 11.6477 14.8522 11.6477 13.7748ZM16.4549 4.74054C21.6765 4.74054 25.8206 8.96756 25.9035 14.1063C25.4891 19.245 22.3395 30.8486 17.1179 34.9099C16.1233 35.6558 15.0458 35.9873 13.8026 35.9873C10.7359 35.9873 8.24946 33.5009 8.24946 30.4342C8.24946 30.0198 8.41523 29.6054 8.74676 29.1081C9.40982 29.3567 10.0729 29.5225 10.8188 29.5225C14.0513 29.5225 16.6206 26.9531 16.6206 23.7207C16.6206 22.9748 16.4549 22.3117 16.2062 21.6486L18.5269 17.173C19.19 15.9297 19.19 14.5207 18.6098 13.1946C18.0296 11.9513 16.9522 11.1225 15.7089 10.791C14.6314 10.5423 13.4711 10.5423 12.5594 10.7081C13.3882 9.46486 14.7972 8.80179 16.5377 8.80179C18.5269 8.80179 20.3503 9.96215 21.2621 11.7027C22.1738 13.5261 22.4224 15.5982 22.1738 17.6703C21.7594 20.2396 20.9305 23.8865 18.8585 26.7045C18.6098 27.036 18.6927 27.6162 19.0242 27.8648C19.19 27.9477 19.3558 28.0306 19.5215 28.0306C19.7702 28.0306 20.0188 27.9477 20.1846 27.6991C22.4224 24.6324 23.417 20.7369 23.8314 17.9189C24.163 15.5982 23.8314 13.1946 22.8368 11.0396C21.6765 8.63603 19.2729 7.14414 16.6206 7.14414C12.808 7.14414 10.0729 9.79639 10.0729 13.6919C10.0729 14.6865 10.4873 16.5099 10.9846 17.9189H10.9017C9.99 17.9189 9.07829 18.1675 8.24946 18.582C7.50352 17.2558 7.17199 15.6811 7.17199 14.1063C7.17199 12.4486 7.5864 10.8739 8.41523 9.46486C9.99 6.56396 13.0567 4.74054 16.4549 4.74054ZM3.2765 18.4162C2.94496 15.018 4.35397 12.7802 5.76298 11.454C5.51433 12.3658 5.43145 13.2775 5.43145 14.1892C5.43145 16.0955 5.92874 17.9189 6.84045 19.5766C5.76298 20.654 5.01703 22.063 5.01703 23.7207C4.27109 22.8919 3.52514 21.3171 3.2765 18.4162Z" fill="#459E93"/>
<path d="M34.5226 12.6966C34.191 13.0281 34.191 13.5254 34.5226 13.857C36.6775 15.929 37.9208 18.747 37.9208 21.7308C37.9208 24.5488 36.8433 27.2011 34.8541 29.2732C34.5226 29.6047 34.5226 30.102 34.8541 30.4335C35.0199 30.5993 35.1856 30.6822 35.4343 30.6822C35.6829 30.6822 35.8487 30.5993 36.0145 30.4335C38.3352 28.1128 39.5784 24.9633 39.5784 21.7308C39.5784 18.3326 38.1694 15.0173 35.6829 12.6966C35.3514 12.2822 34.8541 12.3651 34.5226 12.6966Z" fill="#459E93"/>
<path d="M34.606 21.7309C34.606 23.7201 33.86 25.5436 32.5339 26.9526C32.2024 27.2841 32.2024 27.7814 32.5339 28.1129C32.6997 28.2787 32.8654 28.3616 33.1141 28.3616C33.3627 28.3616 33.5285 28.2787 33.6943 28.1129C35.3519 26.3724 36.2636 24.1345 36.2636 21.7309C36.2636 19.0787 35.1033 16.5922 33.1141 14.8517C32.7826 14.5201 32.2853 14.603 31.9537 14.9346C31.6222 15.2661 31.7051 15.7634 32.0366 16.0949C33.6943 17.421 34.606 19.4931 34.606 21.7309Z" fill="#459E93"/>
<path d="M31.2901 21.7322C31.2901 22.8097 30.8756 23.8872 30.0468 24.716C29.7153 25.0475 29.7153 25.5448 30.0468 25.8764C30.2126 26.0421 30.4612 26.125 30.627 26.125C30.7928 26.125 31.0414 26.0421 31.2072 25.8764C32.2847 24.7989 32.9477 23.307 32.9477 21.7322C32.9477 19.8259 31.9531 18.0025 30.3783 16.925C29.9639 16.6764 29.4666 16.7593 29.218 17.1737C28.9693 17.5881 29.0522 18.0854 29.4666 18.334C30.627 18.9971 31.2901 20.3232 31.2901 21.7322Z" fill="#459E93"/>
</svg>
