<svg width="41" height="40" viewBox="0 0 41 40" fill="none" xmlns="http://www.w3.org/2000/svg">
<g clip-path="url(#clip0_1335_14214)">
<path d="M38.8988 5.75235C38.0139 4.86739 36.8192 4.38067 35.5802 4.38067H28.8103V3.00899C28.8103 2.30102 28.5448 1.59306 28.0139 1.06209C27.4829 0.531112 26.7749 0.265625 26.067 0.265625H14.5183C13.8103 0.265625 13.1024 0.531112 12.5714 1.06209C12.0404 1.59306 11.7749 2.25678 11.7749 3.00899V4.38067H4.96077C3.72184 4.38067 2.52714 4.86739 1.64219 5.75235C0.757233 6.63731 0.270508 7.832 0.270508 9.07093V31.2391C0.270508 32.478 0.757233 33.6727 1.64219 34.5577C2.43865 35.3541 3.4121 35.7966 4.5183 35.9293V37.1683C4.5183 37.832 4.78378 38.4957 5.22626 38.9382L5.27051 38.9824C5.75723 39.4692 6.42095 39.7346 7.08467 39.7346H10.4475C11.1112 39.7346 11.7749 39.4692 12.2174 39.0267L12.2617 38.9824C12.7484 38.4957 13.0139 37.832 13.0139 37.1683V35.9736H27.5271V37.1683C27.5271 37.832 27.7926 38.4957 28.2351 38.9382L28.2794 38.9824C28.7661 39.4692 29.4298 39.7346 30.0935 39.7346H33.4121C34.0758 39.7346 34.7395 39.4692 35.182 39.0267L35.2263 38.9824C35.713 38.4957 35.9785 37.832 35.9785 37.1683V35.9293C37.0847 35.8408 38.1024 35.3541 38.8546 34.5577C39.7395 33.6727 40.2263 32.478 40.2263 31.2391V9.07093C40.2705 7.832 39.7838 6.63731 38.8988 5.75235ZM34.2528 38.009C34.0316 38.2302 33.7218 38.363 33.4121 38.363H30.0935C29.7838 38.363 29.474 38.2302 29.2086 38.009C28.9873 37.7878 28.8546 37.478 28.8546 37.1683V35.9736H34.6068V37.1683C34.651 37.478 34.5183 37.7878 34.2528 38.009ZM11.6422 35.9293V37.124C11.6422 37.4338 11.5094 37.7435 11.244 38.009C11.0227 38.2302 10.713 38.363 10.4033 38.363H7.08467C6.77493 38.363 6.4652 38.2302 6.19971 38.009C5.97847 37.7878 5.84573 37.478 5.84573 37.1683V35.9736H11.6422V35.9293ZM14.5183 1.63731H26.067C26.4209 1.63731 26.7749 1.77005 27.0404 2.03554C27.3059 2.30102 27.4386 2.65501 27.4386 3.00899V4.38067H13.1466V3.00899C13.1466 2.65501 13.2794 2.30102 13.5448 2.03554C13.8103 1.77005 14.1201 1.63731 14.5183 1.63731ZM38.8988 9.07093V31.2391C38.8988 32.124 38.5448 32.9647 37.9254 33.5842C37.3059 34.2037 36.4652 34.5577 35.5802 34.5577H4.96077C4.07582 34.5577 3.23511 34.2037 2.61564 33.5842C1.99617 32.9647 1.64219 32.124 1.64219 31.2391V9.07093C1.64219 8.18598 1.99617 7.34527 2.61564 6.7258C3.23511 6.10633 4.07582 5.75235 4.96077 5.75235H35.5802C36.4652 5.75235 37.3059 6.10633 37.9254 6.7258C38.5448 7.34527 38.8988 8.18598 38.8988 9.07093Z" fill="#459E93"/>
<path d="M6.06698 29.7347H34.4298C34.828 29.7347 35.0935 29.4249 35.0935 29.0709V9.07094C35.0935 8.67271 34.7838 8.40723 34.4298 8.40723H6.06698C5.66875 8.40723 5.40326 8.71696 5.40326 9.07094V29.0709C5.40326 29.4249 5.71299 29.7347 6.06698 29.7347ZM29.9608 17.0355L29.3413 18.6727L27.6599 16.2391C27.4387 15.9293 27.0404 15.8409 26.6864 16.0621C26.5979 16.1506 26.5095 16.2391 26.4652 16.3276L24.3413 20.3984L23.9431 19.7789C23.8103 19.5577 23.5891 19.4249 23.3236 19.4249H19.5183V16.0178C19.5183 15.6196 19.2086 15.3541 18.8546 15.3541C18.5449 15.3541 18.2794 15.5754 18.1909 15.8409L16.1112 22.3895L13.1466 15.9736C13.0581 15.7966 12.9254 15.6639 12.7484 15.6196C12.6599 15.5754 12.5714 15.5754 12.5272 15.5754C12.4387 15.5754 12.3502 15.5754 12.2617 15.6196C12.1289 15.7081 11.9962 15.7966 11.9077 15.9736L10.1378 19.3807L9.29706 16.1948C9.20857 15.8851 8.94308 15.7081 8.63335 15.7081H6.73069V9.73466H33.7218V16.5488H30.5802C30.3148 16.5488 30.0493 16.7258 29.9608 17.0355ZM9.65105 21.8586C9.82804 21.9471 10.005 21.9471 10.182 21.9028C10.359 21.8586 10.4918 21.7258 10.5802 21.5488L12.5272 17.7878L15.6245 24.5134C15.713 24.6904 15.8457 24.8674 16.067 24.9117C16.244 24.9559 16.421 24.9559 16.5979 24.8674C16.7749 24.7789 16.8634 24.6462 16.9519 24.4692L18.2351 20.3541C18.3236 20.6196 18.5891 20.8409 18.8988 20.8409H23.0139L23.8103 22.1683C23.8546 22.301 23.9873 22.4338 24.1201 22.478C24.4741 22.655 24.8723 22.5223 25.0493 22.1683L27.2174 17.9647L28.9431 20.4869C29.0316 20.6196 29.1643 20.7081 29.2971 20.7966C29.4741 20.8409 29.651 20.8409 29.828 20.7966C30.005 20.7524 30.1378 20.5754 30.182 20.3984L31.1112 17.9205H33.7661V28.363H6.77494V16.9913H8.14662L9.29706 21.3718C9.34131 21.5931 9.47406 21.7258 9.65105 21.8586Z" fill="#459E93"/>
<path d="M7.83687 11.6814H14.8723C15.2705 11.6814 15.536 11.3717 15.536 11.0177C15.536 10.6195 15.2263 10.354 14.8723 10.354H7.83687C7.43864 10.354 7.17316 10.6637 7.17316 11.0177C7.17316 11.3717 7.43864 11.6814 7.83687 11.6814Z" fill="#459E93"/>
<path d="M14.8723 13.1418H7.83687C7.43864 13.1418 7.17316 13.4516 7.17316 13.8056C7.17316 14.2038 7.48289 14.4693 7.83687 14.4693H14.8723C15.2705 14.4693 15.536 14.1595 15.536 13.8056C15.536 13.4516 15.2263 13.1418 14.8723 13.1418Z" fill="#459E93"/>
<path d="M24.828 31.4602H21.5979C21.1997 31.4602 20.9342 31.7699 20.9342 32.1239C20.9342 32.4779 21.2439 32.7876 21.5979 32.7876H24.828C25.2262 32.7876 25.4917 32.4779 25.4917 32.1239C25.4917 31.7699 25.182 31.4602 24.828 31.4602Z" fill="#459E93"/>
<path d="M18.5891 31.4602H15.359C14.9608 31.4602 14.6953 31.7699 14.6953 32.1239C14.6953 32.4779 15.005 32.7876 15.359 32.7876H18.5891C18.9873 32.7876 19.2528 32.4779 19.2528 32.1239C19.2528 31.7699 18.9873 31.4602 18.5891 31.4602Z" fill="#459E93"/>
<path d="M35.536 30.7525C35.182 30.3985 34.651 30.1772 34.1201 30.1772C33.5891 30.1772 33.1024 30.3542 32.7484 30.7082L32.7041 30.7525C32.3501 31.1065 32.1289 31.6374 32.1289 32.1684C32.1289 32.6994 32.3501 33.1861 32.7041 33.5843C33.0581 33.9383 33.5891 34.1595 34.1201 34.1595C34.651 34.1595 35.1378 33.9383 35.536 33.5843C35.9342 33.2303 36.1112 32.6994 36.1112 32.1684C36.1555 31.6374 35.9342 31.1507 35.536 30.7525ZM34.8723 32.1684C34.8723 32.3454 34.7838 32.5666 34.651 32.6994C34.3855 32.9649 33.8988 32.9649 33.6333 32.6994C33.5006 32.5666 33.4121 32.3896 33.4121 32.1684C33.4121 31.9914 33.5006 31.7702 33.6333 31.6374C33.7661 31.5047 33.9431 31.4162 34.1201 31.4162C34.297 31.4162 34.5183 31.5047 34.651 31.6374C34.7838 31.7702 34.8723 31.9472 34.8723 32.1684Z" fill="#459E93"/>
<path d="M8.10239 30.708C7.70416 30.3098 7.21743 30.1328 6.64221 30.1328C6.11124 30.1328 5.58026 30.3541 5.18203 30.7523C4.7838 31.1505 4.60681 31.6372 4.60681 32.2125C4.60681 32.7434 4.82805 33.2744 5.18203 33.6726C5.58026 34.0709 6.06699 34.2479 6.64221 34.2479C7.17318 34.2479 7.65991 34.0266 8.05814 33.6726L8.10239 33.6284C8.50062 33.2302 8.67761 32.7434 8.67761 32.1682C8.72186 31.6372 8.50062 31.1063 8.10239 30.708ZM7.17318 32.6992C6.9077 32.9647 6.37672 32.9647 6.11124 32.6992C5.97849 32.5664 5.89 32.3452 5.89 32.1682C5.89 31.947 5.97849 31.77 6.11124 31.6372C6.24398 31.5045 6.46522 31.416 6.64221 31.416C6.86345 31.416 7.04044 31.5045 7.17318 31.6372C7.30593 31.77 7.39442 31.947 7.39442 32.1682C7.43867 32.3452 7.35017 32.5222 7.17318 32.6992Z" fill="#459E93"/>
</g>
<defs>
<clipPath id="clip0_1335_14214">
<rect x="0.25" width="40" height="40" rx="8" fill="white"/>
</clipPath>
</defs>
</svg>
