<svg width="40" height="40" viewBox="0 0 40 40" fill="none" xmlns="http://www.w3.org/2000/svg">
<path d="M38.5961 7.3704C38.2128 6.81664 37.6164 6.60366 36.9349 6.68885L33.9105 7.20001L35.7848 5.62394C36.8071 4.77201 37.0201 3.32373 36.2959 2.30141C35.5292 1.1939 34.0383 0.853129 32.8882 1.57727L21.6001 8.5631C21.2594 8.77608 21.0464 9.07426 20.876 9.41503L18.3202 15.2934L14.3161 19.979C13.592 18.2325 12.1437 16.8694 10.3546 16.2305C7.54327 15.1656 4.30594 16.1453 2.47428 18.5733C1.28158 20.1494 0.81302 22.1514 1.23898 24.1108C1.62235 26.0277 2.81506 27.7315 4.51892 28.7113C7.54327 30.4577 11.164 29.5632 13.7624 26.4536L20.4074 18.8289L20.9186 19.5104L17.6386 28.7113C16.2756 32.5875 17.3405 36.1657 20.2796 37.8695C21.3445 38.5085 22.5373 38.8066 23.73 38.8066C24.5393 38.8066 25.3486 38.6789 26.1154 38.3807C28.0322 37.6565 29.5231 36.1657 30.2472 34.1636C31.0566 31.906 30.6306 29.3928 29.0545 27.5186C27.521 25.6869 25.2634 24.7498 22.9206 25.048L26.2431 15.6767L35.5718 12.7376C36.6793 12.3968 37.6164 11.6726 38.2128 10.6503C39.0221 9.37244 39.1073 8.17973 38.5961 7.3704ZM25.1356 14.8248L21.2594 25.7295C21.1742 25.9851 21.2168 26.2833 21.4297 26.4536C21.6001 26.6666 21.8983 26.7092 22.1539 26.624C24.1985 25.9851 26.2857 26.4962 27.734 28.0297C29.1823 29.5206 29.6509 31.6504 28.9693 33.6099C28.4156 35.1859 27.2229 36.3786 25.6894 36.9324C24.1559 37.4861 22.4521 37.3584 21.0464 36.549C18.235 34.9304 18.1498 31.6078 19.0443 29.0946L22.4521 19.5104C22.5373 19.2974 22.4947 19.0418 22.3243 18.8289L21.0038 17.125C20.9186 17.0398 20.7056 16.912 20.45 16.912C20.237 16.912 20.0241 16.9972 19.8963 17.1676L12.6975 25.4739C10.9936 27.5186 8.13962 29.0946 5.24306 27.4334C3.87997 26.6666 2.94285 25.3035 2.64467 23.7701C2.34649 22.2366 2.68727 20.6605 3.62439 19.3826C5.07267 17.4658 7.62847 16.699 9.84348 17.551C11.6325 18.2325 12.9104 19.7234 13.2938 21.555C13.3364 21.8106 13.5494 22.0236 13.805 22.1088C14.0605 22.194 14.3587 22.0662 14.5291 21.8958L19.4277 16.1027C19.4703 16.0601 19.5129 15.9749 19.5555 15.9323L22.1539 9.96879C22.1965 9.88359 22.2391 9.841 22.3243 9.7984L33.6549 2.72738C34.1235 2.4292 34.8051 2.59959 35.1032 3.06815C35.4014 3.49411 35.2736 4.13306 34.8476 4.51643L27.9044 10.3948C26.9673 11.1615 26.3709 11.6726 26.3709 11.7152C26.2006 11.843 26.2006 11.8856 25.945 12.6098C25.7746 13.0357 25.519 13.7173 25.1356 14.8248ZM27.1803 13.3339C27.4359 12.6098 27.4359 12.6098 28.4582 11.7578C29.0971 11.2467 30.1194 10.4373 31.8233 8.94647L37.1905 8.09454C37.2757 8.09454 37.3608 8.09454 37.446 8.17973C37.5312 8.22233 37.5312 8.30752 37.5312 8.43531C37.5312 8.94647 37.3608 9.45763 37.1053 9.88359C36.7219 10.5651 36.0404 11.0763 35.2736 11.3319L26.9673 13.9729C27.0525 13.7173 27.0951 13.5043 27.1803 13.3339Z" fill="#459E93"/>
<path d="M10.0991 19.0844C9.11934 18.5307 8.01183 18.3603 6.94692 18.6585C5.88201 18.9567 4.98748 19.6382 4.43373 20.5753C3.24102 22.5774 3.92257 25.1332 5.9246 26.2833C6.56355 26.6666 7.28769 26.837 8.01183 26.837C9.46012 26.837 10.8232 26.1129 11.5899 24.7498C12.74 22.7903 12.0585 20.2345 10.0991 19.0844ZM10.3546 24.0682C9.58791 25.3461 7.92664 25.8147 6.64874 25.048C6.0098 24.7072 5.58383 24.1108 5.41345 23.3867C5.24306 22.7051 5.32825 21.9384 5.66902 21.3421C6.18018 20.4901 7.07471 19.979 8.01183 19.979C8.4804 19.979 8.94896 20.1068 9.37492 20.3623C10.0139 20.7457 10.4398 21.2995 10.6102 22.0236C10.7806 22.7051 10.6954 23.4293 10.3546 24.0682Z" fill="#459E93"/>
<path d="M27.2655 29.8614C26.5413 28.5835 25.2634 27.8593 23.8151 27.8593C22.3669 27.8593 21.0464 28.6261 20.3222 29.8614C19.2147 31.7782 19.8537 34.2488 21.7705 35.3563C22.4095 35.7397 23.091 35.9101 23.7726 35.9101C25.1356 35.9101 26.4987 35.1859 27.2655 33.908C27.9896 32.6301 27.9896 31.1393 27.2655 29.8614ZM26.0302 33.1839C25.6894 33.7802 25.1356 34.2062 24.4541 34.3766C23.7726 34.547 23.091 34.4618 22.4521 34.121C21.8557 33.7802 21.4297 33.2265 21.2594 32.5449C21.089 31.8634 21.1742 31.1819 21.5149 30.5855C21.9835 29.7762 22.8354 29.3076 23.7726 29.3076C24.7097 29.3076 25.5616 29.7762 26.0302 30.6281C26.4987 31.3948 26.4987 32.332 26.0302 33.1839Z" fill="#459E93"/>
<path d="M23.7726 12.482C23.1762 12.1412 22.4521 12.3542 22.1539 12.9079C21.8131 13.4617 22.0261 14.1858 22.5798 14.5266C23.1762 14.8674 23.9003 14.6544 24.1985 14.1006C24.5393 13.5469 24.3263 12.8228 23.7726 12.482Z" fill="#459E93"/>
</svg>
