<svg width="41" height="40" viewBox="0 0 41 40" fill="none" xmlns="http://www.w3.org/2000/svg">
<path d="M36.5763 3.4039L35.5008 1.95611C35.5008 1.91475 35.4594 1.91475 35.4594 1.91475C35.2526 1.66655 34.9217 1.45973 34.5907 1.41836C34.2184 1.377 33.8462 1.45973 33.5152 1.70792L31.8606 2.94888C31.8193 2.99025 31.7779 3.03161 31.7365 3.07298C31.6124 3.03161 31.4883 2.99025 31.3642 2.99025C30.9092 2.90752 30.4542 3.03161 30.0819 3.32117L16.1831 13.7039C15.8108 13.9934 15.5626 14.3657 15.5213 14.8208C15.4385 15.2758 15.5626 15.7308 15.8522 16.1031L17.5068 18.3368C17.7964 18.7091 18.1687 18.9159 18.6237 18.9987C18.7064 18.9987 18.7891 18.9987 18.8719 18.9987C19.2442 18.9987 19.6165 18.8746 19.906 18.6264L26.5245 13.6625C26.9795 14.0762 27.5586 14.3244 28.1377 14.4071C28.3446 14.738 28.51 15.069 28.6755 15.4412C28.8409 15.8963 29.0064 16.3513 29.1305 16.8063C29.6683 19.04 29.4201 21.3565 28.3859 23.3834C27.3932 25.3276 25.7385 26.8581 23.7116 27.6854C23.0084 27.189 22.1397 26.8995 21.2297 26.8995C20.0715 26.8995 18.996 27.3545 18.1687 28.1404C18.1687 28.1404 18.1273 28.1818 18.1273 28.2232C17.3827 28.0577 16.6381 27.8095 15.9763 27.4786C15.5626 27.2717 15.1904 27.0649 14.8594 26.8167H15.604C15.8522 26.8167 16.059 26.734 16.2245 26.5685C16.2659 26.5272 16.2659 26.5272 16.2659 26.4858C16.39 26.3203 16.4727 26.1135 16.4727 25.9067V23.2593C16.4727 23.0111 16.39 22.8043 16.2245 22.6388C16.059 22.4734 15.8522 22.3906 15.604 22.3906H5.13855C4.89036 22.3906 4.68354 22.4734 4.51807 22.6388C4.31125 22.8456 4.22852 23.0938 4.22852 23.3007V25.9481C4.22852 26.1962 4.31125 26.4031 4.47671 26.5685C4.51807 26.6099 4.55944 26.6513 4.55944 26.6513C4.7249 26.7754 4.93173 26.8581 5.13855 26.8581H8.82008C8.82008 26.8995 8.86144 26.9408 8.90281 26.9822C9.89558 28.43 11.1779 29.6296 12.6671 30.6223C14.0321 31.491 15.5213 32.1115 17.0932 32.4838C17.2173 32.8974 17.3827 33.2697 17.6309 33.6007L15.8108 38.0681C15.7281 38.2336 15.7281 38.4404 15.8108 38.6059C15.8936 38.7713 16.0177 38.9368 16.2245 38.9782C16.3072 39.0195 16.39 39.0195 16.514 39.0195H26.0281C26.4417 39.0195 26.7313 38.6886 26.7313 38.3163C26.7313 38.1922 26.6899 38.1095 26.6899 38.0268L24.8699 33.5593C25.2422 32.9802 25.4903 32.3183 25.5317 31.6565C28.4273 30.4155 30.8265 28.1818 32.2743 25.3276C33.7634 22.3906 34.1357 18.9987 33.3498 15.8135C33.1843 15.1517 32.9361 14.4898 32.6879 13.828C32.4397 13.2902 32.1915 12.7525 31.902 12.2561C32.0261 11.9252 32.0674 11.5529 32.0674 11.1806C32.0674 10.6842 31.9433 10.2292 31.7779 9.81554L33.7634 8.32639C33.8048 8.32639 33.8048 8.28502 33.8462 8.24365C34.1771 7.9541 34.4253 7.58181 34.4666 7.16815C34.4666 7.04406 34.508 6.91996 34.4666 6.79587C34.508 6.7545 34.5907 6.71313 34.6321 6.67177L36.3281 5.38944C36.6176 5.18261 36.7831 4.85169 36.8658 4.4794C36.9072 4.10711 36.8245 3.73482 36.5763 3.4039ZM14.9835 23.8798V25.4103H5.67631V23.8798H14.9835ZM32.0674 5.22398C32.3156 5.22398 32.4811 5.01715 32.6466 4.85169L32.6879 4.81032C32.8948 4.52077 32.8534 4.35531 32.7707 4.14848V4.10711L34.3839 2.90752L35.418 4.27257L33.8462 5.47217L33.8048 5.43081C33.6393 5.30671 33.4739 5.18261 33.1016 5.30671C32.8534 5.38944 32.6052 5.51354 32.5225 5.76173C32.4397 6.00992 32.6052 6.21675 32.812 6.46494C32.8948 6.54767 32.9361 6.58904 32.9775 6.6304C33.0602 6.71313 33.0602 6.71313 33.0602 6.8786C33.0602 6.96133 33.0189 7.00269 32.9775 7.04406C32.8534 7.12679 32.1088 7.7059 31.1988 8.36775L30.8678 8.61594C30.2887 8.11956 29.5028 7.83 28.7168 7.83C27.8482 7.83 26.9795 8.16092 26.359 8.82277C25.7385 9.44325 25.3662 10.2706 25.3662 11.1806C25.3662 11.5529 25.4076 11.8838 25.5317 12.2147C25.5731 12.3388 25.6144 12.4216 25.6558 12.5457L19.0373 17.5095C18.996 17.5509 18.9132 17.5509 18.8305 17.5509C18.7478 17.5509 18.7064 17.5095 18.665 17.4268L17.0104 15.2344C16.9691 15.193 16.9691 15.1103 16.9691 15.0276C16.9691 14.9449 17.0104 14.9035 17.0932 14.8621L30.9092 4.4794C30.9506 4.43804 30.9919 4.43804 31.0747 4.43804H31.116C31.1988 4.43804 31.2401 4.4794 31.2815 4.52077L31.3229 4.56213C31.4056 4.68623 31.447 4.72759 31.447 4.72759L31.4883 4.76896C31.6124 4.97579 31.8193 5.22398 32.0674 5.22398ZM31.3229 14.3657C31.5711 14.9449 31.7779 15.524 31.902 16.1444C32.6052 18.9987 32.2743 22.0183 30.9506 24.6657C29.7096 27.0649 27.7654 28.9677 25.3662 30.126C25.2422 29.6709 25.0353 29.2159 24.7871 28.8436C26.8554 27.8509 28.5928 26.1962 29.6683 24.0866C30.8678 21.7701 31.1988 19.04 30.5369 16.5167C30.4128 15.979 30.206 15.4412 29.9992 14.9449C29.9164 14.738 29.8337 14.5312 29.7096 14.3657C30.1646 14.2003 30.5783 13.9521 30.9506 13.6212C31.0747 13.8694 31.1988 14.1175 31.3229 14.3657ZM12.6257 26.8581C12.6671 26.9408 12.7084 27.0236 12.7912 27.1063C13.5357 27.8095 14.4044 28.3472 15.3144 28.8023C15.9349 29.0918 16.5968 29.34 17.2586 29.5468C17.0518 30.0019 16.9691 30.4569 16.9277 30.9533C15.6867 30.6223 14.5285 30.126 13.453 29.4228C12.3775 28.7195 11.4261 27.8922 10.6402 26.8995H12.6257V26.8581ZM23.2566 29.2159C23.7944 29.7537 24.0839 30.4983 24.0839 31.2428C24.0839 31.9874 23.7944 32.732 23.2566 33.2697C22.7189 33.8075 21.9743 34.097 21.2297 34.097C20.4438 34.097 19.7405 33.8075 19.2028 33.2697C18.665 32.732 18.3755 31.9874 18.3755 31.2428C18.3755 30.4983 18.665 29.7537 19.2028 29.2159C19.7405 28.6782 20.4851 28.3886 21.2297 28.3886C21.9743 28.3886 22.6775 28.6782 23.2566 29.2159ZM19.3269 35.2139C20.4851 35.7517 21.8916 35.7517 23.0498 35.2139C23.298 35.0898 23.5048 34.9657 23.7116 34.8003L24.8285 37.6131H17.5482L18.665 34.8003C18.8719 34.9657 19.1201 35.0898 19.3269 35.2139ZM30.5783 11.1806C30.5783 11.677 30.3715 12.132 30.0405 12.5043C29.6683 12.8766 29.2132 13.042 28.7168 13.042C28.2205 13.042 27.7654 12.8352 27.3932 12.5043C27.0209 12.132 26.8554 11.677 26.8554 11.1806C26.8554 10.6842 27.0622 10.2292 27.3932 9.85691C27.5586 9.69144 27.7654 9.56735 27.9723 9.44325C28.055 9.40189 28.1377 9.40189 28.2205 9.36052C28.2618 9.36052 28.3032 9.36052 28.3446 9.31916C28.3859 9.31916 28.4687 9.31916 28.51 9.31916C28.6341 9.31916 28.7582 9.31916 28.8823 9.31916C28.9237 9.31916 28.9237 9.31916 28.965 9.31916C29.0478 9.31916 29.1305 9.36052 29.2132 9.36052H29.2546C29.3373 9.40189 29.4201 9.40189 29.5028 9.44325C29.751 9.56735 29.9992 9.77418 30.1646 9.981C30.206 10.0224 30.2474 10.0637 30.2474 10.1051C30.4542 10.4774 30.5783 10.8083 30.5783 11.1806Z" fill="#459E93"/>
</svg>
