<svg width="41" height="40" viewBox="0 0 41 40" fill="none" xmlns="http://www.w3.org/2000/svg">
<g clip-path="url(#clip0_1335_14358)">
<path d="M6.70195 19.88H9.06195V22.28C9.06195 22.68 9.38195 23 9.78195 23H12.262C12.662 23 12.982 22.68 12.982 22.28V19.88H15.342C15.742 19.88 16.062 19.56 16.062 19.16V16.68C16.062 16.28 15.742 15.96 15.342 15.96H12.982V13.56C12.982 13.16 12.662 12.84 12.262 12.84H9.78195C9.38195 12.84 9.06195 13.16 9.06195 13.56V15.96H6.70195C6.30195 15.96 5.98195 16.28 5.98195 16.68V19.16C5.98195 19.56 6.30195 19.88 6.70195 19.88ZM12.222 17.36H14.582V18.44H12.222C11.822 18.44 11.502 18.76 11.502 19.16V21.56H10.422V19.16C10.422 18.76 10.102 18.44 9.70195 18.44H7.34195V17.36H9.70195C10.102 17.36 10.422 17.04 10.422 16.64V14.24H11.502V16.64C11.502 17.08 11.822 17.36 12.222 17.36Z" fill="#459E93"/>
<path d="M39.502 15.6H36.902V11.8C36.902 11.4 36.582 11.08 36.182 11.08H27.222C26.822 11.08 26.502 11.4 26.502 11.8V38.08H11.902V32C12.302 31.92 12.702 31.68 12.982 31.4C13.422 30.96 13.662 30.4 13.662 29.8V29.72H15.182C15.582 29.72 15.902 29.4 15.902 29V26.36H19.062C19.542 26.36 19.982 26.16 20.342 25.84L20.382 25.8C20.742 25.44 20.942 24.96 20.942 24.48V5.88C20.942 4.6 20.422 3.36 19.542 2.44C18.622 1.52 17.422 1 16.142 1H6.34195C5.06195 1 3.86195 1.52 2.94195 2.44C2.02195 3.36 1.50195 4.56 1.50195 5.88V24.52C1.50195 25 1.70195 25.48 2.06195 25.84C2.42195 26.2 2.86195 26.4 3.38195 26.4H6.50195V29.04C6.50195 29.44 6.82195 29.76 7.22195 29.76H8.78195V29.84C8.78195 30.44 9.02195 31 9.46195 31.44C9.74195 31.76 10.142 31.96 10.542 32.04V38.8C10.542 39.2 10.862 39.52 11.262 39.52H27.302C27.702 39.52 28.022 39.2 28.022 38.8V12.48H35.622V15.6H33.102C33.062 15.6 32.982 15.6 32.902 15.64C32.542 15.72 32.302 16.12 32.382 16.48L34.382 24.68C34.422 25 34.742 25.28 35.062 25.28H35.502V25.52C35.502 25.92 35.822 26.24 36.222 26.24C36.622 26.24 36.942 25.92 36.942 25.52V25.28H37.502C37.822 25.28 38.102 25.08 38.182 24.76L40.182 16.56C40.222 16.48 40.222 16.4 40.222 16.36C40.182 15.92 39.862 15.6 39.502 15.6ZM35.502 17V17.36C35.502 17.76 35.822 18.08 36.222 18.08C36.622 18.08 36.942 17.76 36.942 17.36V17H38.622L36.942 23.84H35.502L33.822 17H35.502ZM19.462 9.24C17.982 8.56 15.342 8.2 10.822 9.96C5.26195 12.12 3.30195 10.76 2.86195 10.32V5.88C2.90195 4.96 3.26195 4.08 3.90195 3.44C4.54195 2.8 5.42195 2.44 6.30195 2.44H16.022C16.942 2.44 17.782 2.8 18.422 3.44C19.062 4.08 19.422 4.96 19.422 5.88V9.24H19.462ZM11.342 11.28C16.942 9.12 18.982 10.44 19.462 10.88V24.52C19.462 24.64 19.422 24.76 19.302 24.84C19.222 24.92 19.102 24.96 18.982 24.96H3.34195C3.22195 24.96 3.10195 24.92 3.02195 24.84C2.94195 24.76 2.90195 24.64 2.90195 24.52V11.96C4.34195 12.64 6.90195 12.96 11.342 11.28ZM14.462 26.36V28.28H9.42195C9.38195 28.28 9.34195 28.28 9.34195 28.28H7.90195V26.36H14.462ZM12.222 29.72V29.8C12.222 30.04 12.142 30.24 11.982 30.4C11.822 30.56 11.622 30.64 11.382 30.64H10.982C10.742 30.64 10.542 30.56 10.382 30.4C10.222 30.24 10.142 30 10.142 29.8V29.72H12.222Z" fill="#459E93"/>
</g>
<defs>
<clipPath id="clip0_1335_14358">
<rect width="40" height="40" fill="white" transform="translate(0.5)"/>
</clipPath>
</defs>
</svg>
