<svg width="28" height="14" viewBox="0 0 28 14" fill="none" xmlns="http://www.w3.org/2000/svg">
<path d="M28 7.01151C28 7.42572 27.6642 7.76151 27.25 7.76151L0.999999 7.76151L0.999999 6.26151L27.25 6.26151C27.6642 6.26151 28 6.59729 28 7.01151Z" fill="#3D928D"/>
<path d="M7.6014 13.541C7.3085 13.8339 6.83363 13.8339 6.54074 13.541L-6.18172e-07 7.00022L1.06066 5.93956L7.6014 12.4803C7.89429 12.7732 7.89429 13.2481 7.6014 13.541Z" fill="#3D928D"/>
<path d="M1.06079 8.06077L7.60153 1.52003C7.89442 1.22714 7.89442 0.752265 7.60153 0.459371C7.30863 0.166479 6.83376 0.166478 6.54087 0.459372L-6.18172e-07 7.00022L1.06079 8.06077Z" fill="#3D928D"/>
</svg>
