<svg width="16" height="20" viewBox="0 0 16 20" fill="none" xmlns="http://www.w3.org/2000/svg">
<path d="M1.6 6.04647C1.53938 6.04647 1.48124 6.07097 1.43838 6.11459C1.39551 6.1582 1.37143 6.21735 1.37143 6.27903V18.3721C1.37143 18.5004 1.47383 18.6046 1.6 18.6046H14.4C14.4606 18.6046 14.5188 18.5801 14.5616 18.5365C14.6045 18.4929 14.6286 18.4337 14.6286 18.3721V6.27903C14.6286 6.21735 14.6045 6.1582 14.5616 6.11459C14.5188 6.07097 14.4606 6.04647 14.4 6.04647H1.6ZM0 6.27903C0 5.3795 0.715886 4.65112 1.6 4.65112H14.4C15.2841 4.65112 16 5.3795 16 6.27903V18.3721C16 18.8038 15.8314 19.2179 15.5314 19.5232C15.2313 19.8285 14.8243 20 14.4 20H1.6C1.17565 20 0.768687 19.8285 0.468629 19.5232C0.168571 19.2179 0 18.8038 0 18.3721V6.27903Z" fill="black"/>
<path d="M7.99997 1.39535C7.33314 1.39535 6.69362 1.66487 6.2221 2.14461C5.75058 2.62436 5.48569 3.27503 5.48569 3.95349V7.20931C5.48569 7.39434 5.41344 7.5718 5.28484 7.70264C5.15625 7.83348 4.98183 7.90698 4.79997 7.90698C4.61811 7.90698 4.4437 7.83348 4.3151 7.70264C4.1865 7.5718 4.11426 7.39434 4.11426 7.20931V3.95349C4.11426 2.90496 4.52364 1.89937 5.25236 1.15795C5.98107 0.416527 6.96942 0 7.99997 0C9.03053 0 10.0189 0.416527 10.7476 1.15795C11.4763 1.89937 11.8857 2.90496 11.8857 3.95349V7.20931C11.8857 7.39434 11.8134 7.5718 11.6848 7.70264C11.5562 7.83348 11.3818 7.90698 11.2 7.90698C11.0181 7.90698 10.8437 7.83348 10.7151 7.70264C10.5865 7.5718 10.5143 7.39434 10.5143 7.20931V3.95349C10.5143 3.27503 10.2494 2.62436 9.77784 2.14461C9.30632 1.66487 8.6668 1.39535 7.99997 1.39535Z" fill="black"/>
</svg>
