<svg width="24" height="25" viewBox="0 0 24 25" fill="none" xmlns="http://www.w3.org/2000/svg">
<path fill-rule="evenodd" clip-rule="evenodd" d="M10.8333 12L5.58333 17.25C5.26117 17.5722 5.26117 18.0945 5.58333 18.4167C5.9055 18.7388 6.42783 18.7388 6.75 18.4167L12 13.1667L17.25 18.4167C17.5722 18.7388 18.0945 18.7388 18.4167 18.4167C18.7388 18.0945 18.7388 17.5722 18.4167 17.25L13.1667 12L18.4167 6.75C18.7388 6.42783 18.7388 5.9055 18.4167 5.58333C18.0945 5.26117 17.5722 5.26117 17.25 5.58333L12 10.8333L6.75 5.58333C6.42783 5.26117 5.9055 5.26117 5.58333 5.58333C5.26117 5.9055 5.26117 6.42783 5.58333 6.75L10.8333 12Z" fill="#5A5A5A"/>
</svg>
