<svg width="15" height="20" viewBox="0 0 15 20" fill="none" xmlns="http://www.w3.org/2000/svg">
<path d="M14.5 7.65217C14.5 8.5841 14.0787 9.79531 13.3843 11.1342C12.6976 12.4583 11.7764 13.8467 10.8467 15.1154C9.91832 16.3822 8.98883 17.5198 8.29086 18.3412C7.97044 18.7183 7.69927 19.0282 7.5 19.2527C7.30073 19.0282 7.02956 18.7183 6.70914 18.3412C6.01117 17.5198 5.08168 16.3822 4.15331 15.1154C3.22361 13.8467 2.30242 12.4583 1.61573 11.1342C0.92131 9.79531 0.5 8.5841 0.5 7.65217C0.5 3.69262 3.64343 0.5 7.5 0.5C11.3566 0.5 14.5 3.69262 14.5 7.65217Z" fill="white" stroke="#3D928D"/>
<circle cx="7.5" cy="7.5" r="3" fill="white" stroke="#3D928D"/>
</svg>
