<svg width="17" height="17" viewBox="0 0 17 17" fill="none" xmlns="http://www.w3.org/2000/svg">
<path d="M11.7582 10.9408C11.6182 10.8001 11.4495 10.7052 11.2841 10.6708C11.1202 10.6368 10.9398 10.6601 10.8123 10.7882C10.6848 10.9163 10.6616 11.0975 10.6955 11.2622C10.7297 11.4283 10.8242 11.5977 10.9642 11.7384L14.8687 15.6605C15.0088 15.8012 15.1775 15.8961 15.3428 15.9305C15.5067 15.9646 15.6872 15.9412 15.8147 15.8131C15.9422 15.685 15.9654 15.5038 15.9315 15.3392C15.8973 15.1731 15.8028 15.0036 15.6628 14.8629L11.7582 10.9408Z" fill="#A1B0B3" stroke="#A1B0B3" stroke-width="0.3" stroke-linecap="round" stroke-linejoin="round"/>
<path d="M6.20558 2.28866C4.28889 2.80455 2.79178 4.30841 2.2782 6.23374C1.76463 8.15907 2.31261 10.2134 3.71572 11.6228C5.11884 13.0323 7.16393 13.5827 9.08062 13.0668C10.9973 12.5509 12.4944 11.0471 13.008 9.12173C13.5216 7.1964 12.9736 5.1421 11.5705 3.73266C10.1674 2.32322 8.12227 1.77277 6.20558 2.28866ZM3.36285 6.52568C3.77259 4.9896 4.96702 3.78978 6.49621 3.37819C8.0254 2.9666 9.65702 3.40576 10.7765 4.53025C11.8959 5.65474 12.3331 7.29371 11.9234 8.82979C11.5136 10.3659 10.3192 11.5657 8.78999 11.9773C7.2608 12.3889 5.62918 11.9497 4.50974 10.8252C3.3903 9.70073 2.9531 8.06175 3.36285 6.52568Z" fill="#A1B0B3" stroke="#A1B0B3" stroke-width="0.3" stroke-linecap="round" stroke-linejoin="round"/>
</svg>
