<svg width="30" height="16" viewBox="0 0 30 16" fill="none" xmlns="http://www.w3.org/2000/svg">
<path d="M29 8.01126C29 8.42548 28.6642 8.76126 28.25 8.76126L2 8.76126L2 7.26126L28.25 7.26126C28.6642 7.26126 29 7.59705 29 8.01126Z" fill="#3D928D"/>
<path d="M8.6014 14.5407C8.3085 14.8336 7.83363 14.8336 7.54074 14.5407L0.999999 7.99998L2.06066 6.93932L8.6014 13.4801C8.89429 13.7729 8.89429 14.2478 8.6014 14.5407Z" fill="#3D928D"/>
<path d="M2.06079 9.06053L8.60153 2.51979C8.89442 2.22689 8.89442 1.75202 8.60153 1.45913C8.30863 1.16623 7.83376 1.16623 7.54087 1.45913L0.999999 7.99998L2.06079 9.06053Z" fill="#3D928D"/>
</svg>
