<svg width="163" height="52" viewBox="0 0 163 52" fill="none" xmlns="http://www.w3.org/2000/svg">
<g clip-path="url(#clip0_1420_19396)">
<path d="M43.3134 12.6023C41.7106 15.8987 40.2913 19.2631 39.0458 22.6859C37.8099 26.1281 36.8347 29.4731 36.1396 32.7306C35.4347 35.9978 35.203 38.7983 35.454 41.1903C35.8209 44.7201 37.5203 46.4218 40.5037 46.3634C46.5576 41.6474 50.4583 34.1989 50.4583 25.817C50.4583 19.6618 48.3535 14.022 44.8486 9.58789C44.3465 10.5505 43.8348 11.5521 43.3231 12.6023H43.3134Z" fill="#00817B"/>
<path d="M17.5243 40.909C21.6567 36.6305 25.5671 31.7978 29.2361 26.4302C32.9147 21.0529 36.4003 14.888 39.712 7.93548C39.4224 7.84796 38.9396 7.83824 38.2541 7.91603C35.9175 8.15912 33.6485 9.05372 31.4568 10.6095C29.265 12.1556 27.083 13.9545 24.9395 15.9771C23.8002 17.0564 22.2746 18.7192 20.3532 20.9654C18.4415 23.2116 16.5104 25.6912 14.5697 28.4236C12.629 31.1657 11.007 33.9078 9.69384 36.6888C8.39038 39.4699 7.84003 41.9397 8.0621 44.079C8.11038 44.5068 8.2359 44.8374 8.43866 45.1C8.56417 45.2166 8.68969 45.3236 8.81521 45.4403C8.85383 45.4695 8.89245 45.4986 8.93107 45.5181C9.4428 45.7709 9.97384 45.8681 10.5242 45.8098C11.6249 45.6931 12.8415 45.0805 14.1932 43.9817C15.5256 42.8829 16.636 41.8619 17.5243 40.9284V40.909Z" fill="#00817B"/>
<path d="M28.0483 46.1096C27.8649 44.3302 27.9711 42.2687 28.3476 39.9447C28.7338 37.6207 29.2842 35.3162 30.018 33.0213C30.7518 30.7168 31.5628 28.4414 32.4318 26.1855C32.6925 25.5048 33.3297 23.9004 33.3297 23.9004C33.3297 23.9004 31.5435 26.3605 30.6456 27.6246C28.3573 30.8627 25.8083 34.1104 23.0276 37.3484C20.2372 40.5865 17.3117 43.4842 14.2413 46.0221C13.4785 46.6542 12.6771 47.2279 11.8564 47.7238C15.7282 50.2034 20.3048 51.6425 25.2097 51.6425C27.0828 51.6425 28.898 51.4286 30.6552 51.0299C29.1683 50.2131 28.2897 48.5795 28.0387 46.1193L28.0483 46.1096Z" fill="#00817B"/>
<path d="M6.2566 32.7207C8.44835 29.7258 11.1132 26.5655 14.2318 23.2302C17.3601 19.9047 20.7202 16.6278 24.5147 13.4967C26.6582 11.7269 28.4347 10.4239 31.1961 8.85841C35.4831 6.4469 38.0031 6.34966 40.5038 6.27187C40.639 6.0385 40.7645 5.81485 40.8997 5.60093C36.5934 2.10035 31.1478 0 25.2292 0C11.2966 0 0 11.5616 0 25.8168C0 30.1828 1.06208 34.2862 2.92554 37.884C3.83314 36.2407 4.93383 34.5293 6.2566 32.711V32.7207Z" fill="#00817B"/>
<path d="M55.3055 22.1125C55.8655 16.3559 59.8242 15.5586 63.6283 15.5586C66.2642 15.5586 71.0436 16.3559 71.0436 21.0039V31.1459C71.0436 33.3435 71.5263 33.8297 72.1056 34.0436V34.8118H66.8435C66.5732 33.9075 66.5056 33.6255 66.3994 32.585C65.289 33.7422 63.6959 35.298 60.3745 35.298C57.5648 35.298 54.7358 33.6935 54.7358 29.8332C54.7358 25.5061 58.7524 23.7266 63.4256 23.3377C65.4918 23.1724 66.2642 22.6084 66.2642 21.7041C66.2642 19.6037 64.2849 19.5065 63.0297 19.5065C60.5773 19.5065 60.1621 21.0428 60.0173 22.1222H55.3055V22.1125ZM62.9332 26.6924C61.0987 27.0035 59.6117 27.4897 59.6117 29.5123C59.6117 31.2626 60.9249 31.7877 61.8904 31.7877C64.0338 31.7877 66.2546 30.3485 66.2546 28.0829V25.6811C65.7718 26.0603 64.9318 26.3812 62.9235 26.7021L62.9332 26.6924Z" fill="#00817B"/>
<path d="M73.2931 21.7624C74.162 17.5423 77.1069 15.5586 81.5869 15.5586C86.067 15.5586 89.2628 17.6492 89.2628 20.4691C89.2628 23.289 87.467 24.5531 85.1208 25.0393C87.467 25.3505 90.0063 26.5757 90.0063 29.7457C90.0063 33.7227 86.3566 35.2882 81.6835 35.2882C77.0103 35.2882 73.0903 33.6546 72.9165 28.8025H77.6669C77.6669 30.4458 78.7097 31.564 81.4421 31.564C83.9718 31.564 85.1208 30.7958 85.1208 29.1914C85.1208 27.587 84.078 26.5757 82.0118 26.5757H79.9262V23.4446H81.7511C83.3538 23.4446 84.5607 22.7445 84.5607 21.2762C84.5607 20.051 83.489 19.2925 81.4421 19.2925C79.0959 19.2925 78.2172 20.5858 78.0145 21.7721H73.2931V21.7624Z" fill="#00817B"/>
<path d="M96.804 16.0449V27.7038C96.804 30.5529 98.4647 31.146 99.9902 31.146C101.516 31.146 103.765 30.2028 103.765 26.8578V16.0449H108.641V34.8022H103.968V32.1573H103.901C102.79 34.1507 100.811 35.2884 98.2137 35.2884C94.5447 35.2884 91.9185 33.1686 91.9185 28.3845V16.0449H96.7944H96.804Z" fill="#00817B"/>
<path d="M122.381 28.8026H122.516L126.532 16.0449H133.32V34.8022H128.637V23.2892C128.637 22.2779 128.772 21.0916 128.772 21.0916H128.637L124.244 34.8022H120.633L116.24 21.0916H116.095C116.095 21.0916 116.24 22.2779 116.24 23.2892V34.8022H111.557V16.0449H118.316L122.361 28.8026H122.381Z" fill="#00817B"/>
<path d="M152.573 34.8022V19.9831H147.04V16.0449H163.01V19.9831H157.468V34.8022H152.582H152.573Z" fill="#00817B"/>
<path d="M141.73 27.9858L142.744 25.0978L145.872 16.0449H150.758L144.105 34.8022H139.422L141.18 30.0181L141.72 27.9858H141.73Z" fill="#00817B"/>
<path d="M143.777 31.2238H139.287L138.717 29.6875L133.726 16.0449H139.046L142.213 25.302L143.082 27.9761L143.67 29.6875L143.777 31.2238Z" fill="#00817B"/>
<path d="M142.502 25.7695H142.367V26.0515H142.502V25.7695Z" fill="#00817B"/>
<path d="M66.8628 36.9805H69.2669L70.4159 42.6786H70.4352L71.5939 36.9805H73.9884V45.0513H72.5015V38.6044H72.4822L71.0532 45.0513H69.798L68.369 38.6044H68.3497V45.0513H66.8725V36.9805H66.8628Z" fill="#1A1A1A"/>
<path d="M81.0849 36.9804H85.5649V38.3126H82.6973V40.2087H85.3911V41.5409H82.6973V43.7093H85.6711V45.0415H81.0752V36.9707L81.0849 36.9804Z" fill="#1A1A1A"/>
<path d="M92.1404 43.719H92.7776C92.9804 43.3301 93.1349 42.9606 93.2411 42.5911C93.3473 42.2216 93.4245 41.8521 93.4728 41.4631C93.5211 41.0742 93.5501 40.6852 93.5597 40.2671C93.5694 39.8587 93.579 39.4114 93.579 38.9349V36.9707H98.2136V43.7093H98.9667V46.6362H97.4701V45.0415H93.6177V46.6362H92.1211V43.7093L92.1404 43.719ZM96.6397 43.719V38.3126H95.1239V39.6253C95.1239 39.9462 95.1239 40.2768 95.0949 40.6463C95.0756 41.0061 95.0466 41.3659 94.9984 41.7354C94.9501 42.0952 94.8921 42.4452 94.8149 42.7953C94.7377 43.1453 94.6411 43.4468 94.5156 43.7288H96.6397V43.719Z" fill="#1A1A1A"/>
<path d="M105.667 36.9805H109.945V38.3126H107.28V45.0513H105.667V36.9805Z" fill="#666666"/>
<path d="M116.616 36.9804H119.445C119.86 36.9804 120.208 37.0485 120.488 37.1944C120.768 37.3305 121 37.5152 121.164 37.7389C121.338 37.9625 121.463 38.2251 121.531 38.5168C121.608 38.8085 121.646 39.1002 121.646 39.4017C121.646 39.8198 121.589 40.1893 121.463 40.4907C121.338 40.7922 121.164 41.045 120.942 41.2395C120.72 41.4339 120.449 41.5798 120.14 41.677C119.831 41.7743 119.474 41.8229 119.098 41.8229H118.229V45.0415H116.606V36.9707L116.616 36.9804ZM118.953 40.6366C119.271 40.6366 119.532 40.5394 119.735 40.3449C119.938 40.1504 120.034 39.8392 120.034 39.4308C120.034 39.0224 119.947 38.7113 119.773 38.5071C119.6 38.2931 119.31 38.1862 118.904 38.1862H118.229V40.6366H118.943H118.953Z" fill="#666666"/>
<path d="M129.294 45.0999H129.13C129.13 45.0999 129.033 45.0999 128.985 45.0999C128.937 45.0999 128.879 45.0999 128.821 45.0901C128.753 45.0901 128.676 45.0804 128.57 45.061V43.826C128.724 43.8455 128.888 43.8552 129.043 43.8552C129.303 43.8552 129.497 43.7872 129.612 43.651C129.728 43.5149 129.844 43.3204 129.95 43.0773L130.028 42.8926L127.826 36.9805H129.622L130.8 40.9478L131.93 36.9805H133.61L131.688 42.7953C131.553 43.2134 131.418 43.5732 131.292 43.8649C131.157 44.1567 131.012 44.39 130.839 44.5748C130.665 44.7595 130.452 44.8957 130.211 44.9735C129.96 45.061 129.661 45.0999 129.294 45.0999Z" fill="#666666"/>
<path d="M140.233 36.9805H145.35V45.0513H143.738V38.3126H141.855V45.0513H140.243V36.9805H140.233Z" fill="#666666"/>
<path d="M152.438 36.9805H157.555V45.0513H155.942V38.3126H154.06V45.0513H152.447V36.9805H152.438Z" fill="#666666"/>
</g>
<defs>
<clipPath id="clip0_1420_19396">
<rect width="163" height="51.6335" fill="white"/>
</clipPath>
</defs>
</svg>
