<svg width="213" height="58" viewBox="0 0 213 58" fill="none" xmlns="http://www.w3.org/2000/svg">
<g clip-path="url(#clip0_2507_81)">
<path d="M47.1703 13.6299C45.4203 17.1899 43.8803 20.8299 42.5203 24.5399C41.1703 28.2599 40.1103 31.8799 39.3503 35.3999C38.5803 38.9299 38.3303 41.9699 38.6003 44.5499C39.0003 48.3699 40.8503 50.2099 44.1003 50.1499C50.6903 45.0499 54.9403 36.9999 54.9403 27.9299C54.9403 21.2799 52.6503 15.1699 48.8303 10.3799C48.2803 11.4199 47.7303 12.4999 47.1703 13.6399V13.6299Z" fill="white"/>
<path d="M19.0899 44.2401C23.5899 39.6101 27.8499 34.3901 31.8399 28.5801C35.8499 22.7701 39.6499 16.1001 43.2499 8.5801C42.9398 8.4901 42.4099 8.48011 41.6599 8.56011C39.1199 8.83011 36.6399 9.7901 34.2499 11.4701C31.8599 13.1501 29.4899 15.0801 27.1499 17.2801C25.9099 18.4501 24.2499 20.2501 22.1599 22.6701C20.0699 25.1001 17.9699 27.7901 15.8599 30.7301C13.7499 33.6901 11.9799 36.6601 10.5499 39.6701C9.12985 42.6801 8.52985 45.3501 8.77985 47.6601C8.82985 48.1201 8.96985 48.4801 9.18985 48.7601C9.32985 48.8801 9.45985 49.0001 9.59985 49.1201C9.64985 49.1501 9.67985 49.1801 9.72985 49.2101C10.2899 49.4801 10.8699 49.5801 11.4599 49.5201C12.6599 49.3901 13.9899 48.7301 15.4499 47.5501C16.8999 46.3601 18.1099 45.2601 19.0699 44.2501L19.0899 44.2401Z" fill="white"/>
<path d="M30.5497 49.8698C30.3497 47.9398 30.4597 45.7098 30.8797 43.1998C31.2997 40.6898 31.8997 38.1898 32.6997 35.7098C33.4997 33.2198 34.3797 30.7598 35.3297 28.3098C35.6097 27.5698 36.3097 25.8398 36.3097 25.8398C36.3097 25.8398 34.3697 28.4998 33.3897 29.8598C30.8897 33.3698 28.1197 36.8698 25.0897 40.3698C22.0497 43.8698 18.8697 47.0098 15.5197 49.7498C14.6897 50.4398 13.8197 51.0498 12.9297 51.5898C17.1497 54.2698 22.1297 55.8298 27.4697 55.8298C29.5097 55.8298 31.4897 55.5998 33.3997 55.1698C31.7797 54.2898 30.8197 52.5298 30.5497 49.8498V49.8698Z" fill="white"/>
<path d="M6.82 35.38C9.21 32.14 12.11 28.72 15.5 25.11C18.91 21.51 22.56 17.97 26.7 14.58C29.04 12.67 30.97 11.26 33.98 9.57C38.65 6.96 41.39 6.86 44.12 6.78C44.27 6.52 44.41 6.29 44.55 6.05C39.86 2.27 33.93 0 27.47 0C12.3 0 0 12.5 0 27.92C0 32.64 1.16 37.08 3.19 40.97C4.18 39.2 5.37 37.34 6.82 35.38Z" fill="white"/>
<path d="M59.1696 22.5698C59.9696 14.4198 65.5996 13.2998 71.0296 13.2998C74.7796 13.2998 81.5996 14.4298 81.5996 20.9998V35.3498C81.5996 38.4598 82.2796 39.1498 83.1096 39.4398V40.5198H75.6096C75.2296 39.2398 75.1196 38.8498 74.9796 37.3698C73.3896 38.9998 71.1296 41.2098 66.3896 41.2098C62.3796 41.2098 58.3496 38.9398 58.3496 33.4698C58.3496 27.3398 64.0696 24.8298 70.7396 24.2798C73.6796 24.0398 74.7796 23.2498 74.7796 21.9598C74.7796 18.9998 71.9596 18.8498 70.1796 18.8498C66.6896 18.8498 66.0896 21.0298 65.8896 22.5498H59.1696V22.5698ZM70.0396 29.0398C67.4296 29.4798 65.3096 30.1698 65.3096 33.0198C65.3096 35.4898 67.1796 36.2398 68.5596 36.2398C71.6196 36.2398 74.7796 34.2098 74.7796 30.9998V27.5998C74.0896 28.1398 72.8996 28.5898 70.0396 29.0398Z" fill="white"/>
<path d="M84.7895 22.07C86.0295 16.1 90.2195 13.29 96.5995 13.29C102.98 13.29 107.54 16.24 107.54 20.24C107.54 24.24 104.98 26.01 101.64 26.71C104.98 27.15 108.6 28.88 108.6 33.37C108.6 39 103.4 41.21 96.7495 41.21C90.0995 41.21 84.5095 38.9 84.2695 32.03H91.0295C91.0295 34.35 92.5095 35.94 96.3995 35.94C99.9995 35.94 101.64 34.85 101.64 32.58C101.64 30.31 100.16 28.88 97.1995 28.88H94.2295V24.45H96.8395C99.1195 24.45 100.85 23.46 100.85 21.38C100.85 19.65 99.3195 18.57 96.4095 18.57C93.0595 18.57 91.8195 20.4 91.5295 22.08H84.7995L84.7895 22.07Z" fill="white"/>
<path d="M118.29 13.99V30.48C118.29 34.51 120.65 35.35 122.83 35.35C125.01 35.35 128.21 34.02 128.21 29.28V13.98H135.16V40.52H128.51V36.78H128.41C126.83 39.6 124.01 41.22 120.31 41.22C115.08 41.22 111.34 38.22 111.34 31.45V13.99H118.29Z" fill="white"/>
<path d="M154.73 32.0402H154.93L160.65 13.9902H170.32V40.5302H163.65V24.2402C163.65 22.8202 163.84 21.1302 163.84 21.1302H163.65L157.39 40.5202H152.25L146 21.1302H145.8C145.8 21.1302 146 22.8102 146 24.2402V40.5302H139.33V13.9902H148.97L154.74 32.0402H154.73Z" fill="white"/>
<path d="M197.74 40.5202V19.5602H189.85V13.9902H212.6V19.5602H204.7V40.5202H197.74Z" fill="white"/>
<path d="M182.3 30.87L183.75 26.78L188.21 13.98H195.17L185.7 40.52H179.02L181.53 33.75L182.3 30.87Z" fill="white"/>
<path d="M185.219 35.4597H178.809L177.999 33.2897L170.899 13.9897H178.479L182.989 27.0797L184.229 30.8597L185.059 33.2897L185.219 35.4597Z" fill="white"/>
<path d="M183.409 27.75H183.209V28.14H183.409V27.75Z" fill="white"/>
<path d="M75.6396 43.6001H79.0596L80.6897 51.6601H80.7197L82.3697 43.6001H85.7796V55.0201H83.6696V45.9001H83.6396L81.6096 55.0201H79.8196L77.7896 45.9001H77.7597V55.0201H75.6497V43.6001H75.6396Z" fill="white"/>
<path d="M95.8896 43.6001H102.27V45.4901H98.1897V48.1801H102.03V50.0701H98.1897V53.1401H102.43V55.0301H95.8896V43.6101V43.6001Z" fill="white"/>
<path d="M111.64 53.1301H112.55C112.84 52.5901 113.06 52.0501 113.21 51.5401C113.36 51.0201 113.48 50.4901 113.55 49.9501C113.62 49.4101 113.66 48.8401 113.68 48.2601C113.7 47.6801 113.7 47.0501 113.7 46.3801V43.6001H120.31V53.1401H121.38V57.2801H119.25V55.0201H113.76V57.2801H111.63V53.1401L111.64 53.1301ZM118.06 53.1301V45.4801H115.9V47.3401C115.9 47.7901 115.89 48.2701 115.86 48.7801C115.83 49.2901 115.79 49.8001 115.72 50.3201C115.66 50.8301 115.57 51.3301 115.46 51.8201C115.35 52.3101 115.21 52.7501 115.04 53.1401H118.06V53.1301Z" fill="white"/>
<path d="M130.92 43.6001H137.02V45.4901H133.23V55.0301H130.93V43.6101L130.92 43.6001Z" fill="white"/>
<path d="M146.51 43.6001H150.54C151.13 43.6001 151.62 43.7001 152.02 43.9001C152.42 44.1001 152.74 44.3601 152.99 44.6801C153.24 45.0001 153.41 45.3701 153.52 45.7801C153.63 46.1901 153.68 46.6101 153.68 47.0401C153.68 47.6401 153.59 48.1501 153.42 48.5801C153.25 49.0101 153 49.3701 152.68 49.6401C152.37 49.9201 151.98 50.1301 151.54 50.2601C151.1 50.3901 150.6 50.4701 150.05 50.4701H148.82V55.0301H146.52V43.6101L146.51 43.6001ZM149.84 48.7701C150.3 48.7701 150.67 48.6301 150.95 48.3501C151.23 48.0701 151.37 47.6401 151.37 47.0501C151.37 46.4601 151.25 46.0401 151 45.7401C150.75 45.4401 150.34 45.2901 149.77 45.2901H148.81V48.7601H149.83L149.84 48.7701Z" fill="white"/>
<path d="M164.57 55.0901H164.33C164.27 55.0901 164.2 55.0901 164.13 55.0901C164.06 55.0901 163.98 55.0801 163.89 55.0701C163.8 55.0701 163.68 55.0501 163.53 55.0301V53.2901C163.75 53.3201 163.98 53.3401 164.2 53.3401C164.57 53.3401 164.85 53.2401 165.02 53.0501C165.19 52.8601 165.35 52.5901 165.5 52.2301L165.61 51.9701L162.47 43.6001H165.03L166.71 49.2201L168.33 43.6001H170.73L167.99 51.8201C167.8 52.4201 167.61 52.9201 167.42 53.3301C167.23 53.7401 167.02 54.0801 166.77 54.3401C166.52 54.6001 166.23 54.7901 165.87 54.9101C165.52 55.0301 165.08 55.0901 164.56 55.0901H164.57Z" fill="white"/>
<path d="M180.17 43.6001H187.47V55.0201H185.17V45.4801H182.48V55.0201H180.18V43.6001H180.17Z" fill="white"/>
<path d="M197.55 43.6001H204.85V55.0201H202.55V45.4801H199.86V55.0201H197.56V43.6001H197.55Z" fill="white"/>
</g>
<defs>
<clipPath id="clip0_2507_81">
<rect width="212.61" height="57.28" fill="white"/>
</clipPath>
</defs>
</svg>
